<?xml version="1.0" encoding="utf-8"?>
<!-- Generator: Adobe Illustrator 16.0.3, SVG Export Plug-In . SVG Version: 6.00 Build 0)  -->
<!DOCTYPE svg PUBLIC "-//W3C//DTD SVG 1.1//EN" "http://www.w3.org/Graphics/SVG/1.1/DTD/svg11.dtd">
<svg version="1.1" id="Layer_1" xmlns="http://www.w3.org/2000/svg" xmlns:xlink="http://www.w3.org/1999/xlink" x="0px" y="0px"
	 width="107px" height="60px" viewBox="0 0 107 60" enable-background="new 0 0 107 60" xml:space="preserve">
<path fill="#58585B" d="M5.501,38.199c-1.1,0-2.1,0.299-2.899,1c-0.801,0.699-1.2,1.5-1.2,2.396c0,1.303,1,2.5,3,3.5l1.1,0.604
	l1.9,1.199c0.3,0.301,0.5,0.697,0.5,1.197c0,0.604-0.3,1.201-0.7,1.701c-0.5,0.4-1.2,0.699-1.9,0.699c-1.8,0-3-1-3.6-2.9h-0.2
	l-0.1,2.803c1.399,0.801,2.8,1.1,4,1.1c1.3,0,2.399-0.398,3.3-1.198c0.8-0.802,1.3-1.802,1.3-2.899c0-0.9-0.2-1.5-0.7-2.101
	c-0.399-0.601-1.199-1.101-2.399-1.7l-1.2-0.5c-1.4-0.699-2.2-1.398-2.2-2.199c0-0.5,0.2-1,0.601-1.4c0.399-0.4,0.899-0.6,1.5-0.6
	c1.199,0,2.3,0.699,3.199,2.301h0.2v-2.303C7.601,38.498,6.401,38.199,5.501,38.199 M18.401,43.398v-2c-0.9-0.303-1.7-0.5-2.601-0.5
	c-1.5,0-2.699,0.5-3.699,1.5s-1.4,2.301-1.4,3.801c0,1.601,0.5,2.896,1.3,3.896c0.9,1,2,1.5,3.5,1.5c1,0,2-0.299,2.9-1l0.3-1.396
	h-0.1c-0.801,0.896-1.7,1.299-2.601,1.299c-0.899,0-1.7-0.398-2.3-1.299c-0.6-0.801-0.9-1.899-0.9-3.399c0-1.2,0.301-2.2,0.801-3
	c0.6-0.802,1.3-1.101,2.199-1.101c1,0,1.801,0.5,2.301,1.699H18.401z M19.201,33.298c0.3,0.3,0.5,1,0.5,1.9v14.1
	c0,1-0.2,1.601-0.6,2l0,0H22.5l0,0c-0.398-0.399-0.6-1-0.6-1.899v-4.101c0-2.1,0.8-3.2,2.5-3.2c0.8,0,1.398,0.2,1.699,0.7
	c0.301,0.5,0.5,1.3,0.5,2.5v6h2.699l0,0c-0.398-0.301-0.6-1-0.6-1.899v-4.301c0-2.8-1.2-4.199-3.4-4.199c-1.199,0-2.3,0.5-3.3,1.399
	v-9.1L19.201,33.298L19.201,33.298z M38.102,41.098h-1.101l-2.5,7.603l-1.899-6.302l-0.102-0.5c0-0.301,0.102-0.601,0.4-0.698
	v-0.103h-3.4V41.2c0.5,0.299,1.102,1.397,1.602,3.397l2,6.801h1.6l2.2-6.899l2,6.899h1.6l2.7-8.301c0.3-1,0.9-1.601,1.6-1.897
	v-0.103h-3.1V41.2c0.5,0.101,0.7,0.397,0.7,0.897l-0.3,1.399l-1.7,5.201L38.102,41.098z M62.9,42.098h1.801l-5.602,9.2h8.201
	l0.199-2.399l0,0c-0.4,0.601-0.699,0.899-1.1,1.101L64.6,50.3h-2.5l5.602-9.2H60.6L60.2,43.2h0.101
	C60.801,42.498,61.6,42.098,62.9,42.098z M68.501,33.298c0.399,0.3,0.601,1,0.601,1.9v14.1c0,1-0.199,1.601-0.601,2l0,0H71.9l0,0
	c-0.399-0.399-0.601-1-0.601-1.899v-3.601l4.199,5.601h2.899l0,0l-5.199-6.601l4.101-3.5v-0.1H74v0.1
	c0.2,0.101,0.301,0.3,0.301,0.601c0,0.601-0.801,1.5-2.301,2.802l-0.699,0.6v-12h-2.8V33.298z M105.1,35.298
	c-1.299,0-2.197,0.4-2.697,1.101c-0.602,0.699-0.803,2-0.803,3.802v0.897h-0.697l-0.303,1h1v7.2c0,1-0.197,1.699-0.6,2.101l0,0
	h3.301l0,0c-0.398-0.301-0.601-1-0.601-1.899V42.2h1.601l0.199-0.9h-1.8v-3.2c0-1.199,0.399-1.699,1.101-1.699
	c0.399,0,0.699,0.199,0.899,0.5l0,0L106,35.6L105.1,35.298z M54.102,41.098c0.301,0.301,0.5,1,0.5,2v6.2c0,1-0.199,1.601-0.602,2
	l0,0h3.301l0,0c-0.398-0.399-0.601-1-0.601-1.899v-4.899c0-1.198,0.5-1.899,1.601-1.899c0.5,0,0.799,0.201,1.102,0.603h0.1
	l0.102-2.103c-1.102,0.103-2.102,0.5-2.899,1.5V41.2L54.102,41.098L54.102,41.098z M49.801,45.098v2.899
	c0,1.5-0.699,2.301-2.1,2.301c-0.5,0-0.8-0.2-1.2-0.5c-0.3-0.301-0.5-0.7-0.5-1.2s0.101-0.897,0.4-1.3c0.3-0.301,0.899-0.7,1.7-1.2
	L49.801,45.098z M48.102,41.699c1.1,0,1.6,0.5,1.6,1.601c0,0.8-0.8,1.601-2.4,2.3c-1.3,0.602-2.199,1-2.699,1.5
	s-0.699,1.102-0.699,1.898c0,0.701,0.3,1.4,0.699,1.802c0.5,0.5,1.199,0.698,1.899,0.698c1.101,0,2.101-0.398,3.3-1.299V51.3h2.7
	l0,0c-0.399-0.302-0.6-1-0.6-2v-4.802c0-1.299-0.2-2.299-0.7-2.799s-1.3-0.801-2.4-0.801c-0.898,0-2,0.301-3.1,0.801l-0.4,1.896h0.2
	C46.301,42.298,47.102,41.699,48.102,41.699z M83.201,41.598c1,0,1.699,0.5,2.3,1.399s0.899,2.201,0.899,3.701
	c0,1.299-0.301,2.299-0.801,3c-0.5,0.799-1.199,1.1-2.101,1.1c-0.899,0-1.699-0.5-2.399-1.399c-0.601-0.899-0.898-2.101-0.898-3.601
	c0-1.2,0.3-2.301,0.898-3C81.6,41.998,82.301,41.598,83.201,41.598z M87.201,42.298c-1-1.1-2.301-1.6-3.801-1.6
	c-1.601,0-2.899,0.5-4,1.6c-1.101,1-1.601,2.3-1.601,3.9c0,1.5,0.5,2.799,1.601,3.897c1.101,1.103,2.399,1.603,3.899,1.603
	s2.8-0.5,3.899-1.603c1-1.101,1.601-2.397,1.601-3.897S88.201,43.398,87.201,42.298z M94.6,41.998c0.9,0,1.603,0.4,2.103,1.201
	c0.5,0.799,0.8,1.896,0.8,3.199c0,1.301-0.3,2.398-0.8,3.197c-0.603,0.803-1.3,1.201-2.2,1.201c-1.398,0-2.199-0.801-2.199-2.398
	v-3.303C92.301,42.898,93.1,41.998,94.6,41.998z M98.6,42.199C97.801,41.3,96.701,40.8,95.5,40.8c-1.3,0-2.4,0.5-3.199,1.5v-1.302
	H89.6V41.1c0.4,0.301,0.603,1,0.603,2V56.7c0,1-0.2,1.6-0.603,2v0.1h3.303v-0.1c-0.4-0.302-0.602-1-0.602-1.9V50.9
	c0.699,0.5,1.5,0.697,2.299,0.697c1.4,0,2.603-0.6,3.603-1.697c1-1.099,1.5-2.5,1.5-4.102C99.701,44.298,99.301,43.098,98.6,42.199z
	 M46.201,6.798l0.2,0.3l-0.4,1.2l-0.3,0.8l0.1,0.301l0.2,0.199l0.101,0.4l-0.301,0.7l-0.3,0.8c-0.7,1.3-1.1,2-1.1,2.3
	c0,0.3,0.2,0.5,0.7,0.601c0.5,0.1,0.8,0.3,0.8,0.5l-0.3,0.699l0.1,0.301l0.1,0.1v0.3l0,0V16.4l-0.1,0.3l0.1,0.3l0.2,0.2l0.101,0.399
	V17.7l-0.101,0.5v0.3c0,0.6,0.7,0.9,2.101,0.9c0.899,0,1.5,0.1,1.801,0.3c0.3,0.2,0.398,0.7,0.398,1.3c0,2-0.8,4.2-2.5,6.4
	c-0.6,0.899-0.898,1.399-0.898,1.6s0.1,0.2,0.199,0.2c0.899,0,2.301-0.7,4.399-2.2c2.8-2,5.2-3.2,7.2-3.5
	c0.5-0.1,0.699-0.2,0.699-0.4c0-0.3-0.199-1-0.601-2c-0.5-1.199-0.7-2.3-0.7-3.1c0-0.5,0-0.9,0.102-1c0.1-0.2,0.398-0.4,0.898-0.6
	c0.7-0.301,1.2-0.7,1.399-1.101l0.801-1.2c0.699-0.8,1.101-1.8,1.101-2.8v-0.7l0.101-1l0.101-0.5l0.199-1.3l-0.1-0.899l-0.2-0.4
	l-0.2-1c-0.199-1.7-1.1-3-2.8-3.7c-0.399-0.2-0.8-0.399-1.101-0.6c-0.699-0.601-1.601-0.9-2.5-0.9H55.3L53.402,0h-0.9l-1.5,0.3
	l-1.1,0.2c-0.7,0.1-1.4,0.4-2.4,0.9l-1.398,1.1l-0.2,0.3l-0.3,0.4c-0.4,0.399-0.602,0.899-0.602,1.5
	C44.901,5.698,45.301,6.398,46.201,6.798z"/>
</svg>
