<?xml version="1.0" encoding="utf-8"?>
<!-- Generator: Adobe Illustrator 16.0.3, SVG Export Plug-In . SVG Version: 6.00 Build 0)  -->
<!DOCTYPE svg PUBLIC "-//W3C//DTD SVG 1.1//EN" "http://www.w3.org/Graphics/SVG/1.1/DTD/svg11.dtd">
<svg version="1.1" id="Layer_1" xmlns="http://www.w3.org/2000/svg" xmlns:xlink="http://www.w3.org/1999/xlink" x="0px" y="0px"
	 width="126.104px" height="42.333px" viewBox="0 0 126.104 42.333" enable-background="new 0 0 126.104 42.333"
	 xml:space="preserve">
<g>
	<g>
		<g>
			<g>
				<path id="SVGID_1_" fill="#58585B" d="M18.901,5.328l-2.864,0.696c-0.389,0.079-0.698,0.155-1.086,0.31l1.238,5.345l1.008,4.647
					l3.177,14.022c0.077,0,0.077,0,0.152-0.078v0.078l5.114,1.704l-6.043-0.931c-1.083-5.035-2.246-10.071-3.485-15.106
					c-4.339,1.007-9.838,2.402-14.563,4.88l9.063,5.966L10.07,38.713c-0.543,0.232-0.077,0.543-0.697,0.854l0.542-11.853L0,21.363
					l8.212,7.128L7.514,42.433c7.283-3.407,15.106-6.196,23.162-8.364l-1.396-6.043c18.438-4.029,47.487-4.029,65.924,0
					l-1.316,5.965c8.056,2.17,15.801,4.959,23.163,8.367l-0.698-13.945l8.212-7.126l-9.839,6.353l0.543,11.852
					c-0.465-0.23-0.077-0.154-0.543-0.387l-0.774-12.007l8.677-5.578c-4.727-2.401-10.302-4.494-14.33-5.346
					c-0.93,3.719-2.402,10.923-3.333,15.106l-6.118,0.931l5.345-1.782l0,0h0.077l3.101-14.408l1.083-4.879l1.162-5.5
					c-10.458-2.79-27.267-4.339-45.006-4.339C48.803,1.299,32.226,2.54,18.901,5.328"/>
			</g>
			<g>
				<g>
					<g>
						<defs>
							<path id="SVGID_2_" d="M18.901,5.328l-2.864,0.696c-0.389,0.079-0.698,0.155-1.086,0.31l1.238,5.345l1.008,4.647
								l3.177,14.022c0.077,0,0.077,0,0.152-0.078v0.078l5.114,1.704l-6.043-0.931c-1.083-5.035-2.246-10.071-3.485-15.106
								c-4.339,1.007-9.838,2.402-14.563,4.88l9.063,5.966L10.07,38.713c-0.543,0.232-0.077,0.543-0.697,0.854l0.542-11.853
								L0,21.363l8.212,7.128L7.514,42.433c7.283-3.407,15.106-6.196,23.162-8.364l-1.396-6.043c18.438-4.029,47.487-4.029,65.924,0
								l-1.316,5.965c8.056,2.17,15.801,4.959,23.163,8.367l-0.698-13.945l8.212-7.126l-9.839,6.353l0.543,11.852
								c-0.465-0.23-0.077-0.154-0.543-0.387l-0.774-12.007l8.677-5.578c-4.727-2.401-10.302-4.494-14.33-5.346
								c-0.93,3.719-2.402,10.923-3.333,15.106l-6.118,0.931l5.345-1.782l0,0h0.077l3.101-14.408l1.083-4.879l1.162-5.5
								c-10.458-2.79-27.267-4.339-45.006-4.339C48.803,1.299,32.226,2.54,18.901,5.328"/>
						</defs>
						<use xlink:href="#SVGID_2_"  overflow="visible" fill="#58585B"/>
						<clipPath id="SVGID_3_">
							<use xlink:href="#SVGID_2_"  overflow="visible"/>
						</clipPath>
						<rect x="0" y="1.299" clip-path="url(#SVGID_3_)" fill="#58585B" width="124.563" height="41.134"/>
					</g>
				</g>
			</g>
		</g>
	</g>
</g>
<path fill="#FFFFFF" d="M30.986,8.272c0.62,0,1.161,0.077,1.781,0.155c0.62,0.076,1.163,0.076,1.783,0.076
	c0.077-0.076,0.155-0.076,0.233-0.155c1.083-0.465,2.169-0.465,2.864,0.388c0.155,0.31,0.233,0.542,0.233,0.851
	c0.542-0.618,1.084-1.161,1.704-1.704c0.695-0.386,1.315-0.774,2.092-1.084c0.231-0.155,0.463-0.232,0.773-0.232
	c0.31-0.078,0.543-0.078,0.853,0c0.077,0,0.233,0.077,0.31,0.077c0.077,0.079,0.233,0.079,0.311,0.155
	c0.155-0.077,0.232,0,0.31,0.078c0.077,0.077,0.155,0.155,0.233,0.231c0.077,0.078,0.077,0.155,0.153,0.233
	c0.077,0.155,0.077,0.31,0.155,0.464c0,0.232,0,0.465-0.078,0.696c-0.154,0.467-0.31,0.93-0.465,1.395
	c-0.386,1.086-0.773,2.17-0.853,3.255c0,0.31,0,0.62,0.078,0.929c0.154,0,0.23-0.078,0.388-0.078
	c0.153-0.542,0.386-1.006,0.696-1.471c0.853-1.241,2.17-2.402,3.873-2.712c0.62-0.078,1.086-0.078,1.706,0.077
	c0.23,0.078,0.386,0.155,0.62,0.233c0.152-0.078,0.31-0.155,0.386-0.233c0.853-0.387,1.626-0.62,2.555-0.231
	c0.311,0.155,0.466,0.311,0.698,0.543c0.078,0.155,0.232,0.31,0.31,0.465c0.466-0.543,1.008-1.008,1.549-1.473
	c0.62-0.465,1.239-0.93,1.938-1.318c0.465-0.155,0.93-0.386,1.627-0.386c0.153,0,0.31,0,0.387,0.077
	c0.387,0.078,0.62,0.233,0.93,0.543c0.232,0.231,0.31,0.386,0.31,0.696c0,0.233,0,0.465-0.077,0.774
	c0.153,0,0.231,0.079,0.311,0.155c-0.389-0.852-0.233-1.626,0.386-2.4c0.62-0.698,1.551-1.163,2.557-1.318
	c0.93-0.077,1.782,0.079,2.479,0.62c0.31,0.233,0.543,0.465,0.695,0.775c0.467-0.542,1.239-0.93,2.017-1.161
	c1.083-0.233,2.09-0.155,3.02,0.542c0.543,0.464,0.854,0.929,0.931,1.472c0.078,0.853-0.387,1.626-1.083,2.169
	c0.077,0.155,0.152,0.31,0.152,0.465c1.396-0.853,3.1-1.163,4.805-0.93c1.16,0.155,2.09,0.62,2.71,1.473
	c0.62-0.31,1.238-0.543,2.015-0.62c1.006-0.079,2.322,0,3.099,0.696c1.161-0.387,2.4-0.077,3.408,0.62
	c0.232,0.155,0.387,0.388,0.542,0.62c0.078,0,0.078,0,0.155-0.077c-0.077-0.233-0.155-0.543-0.155-0.774
	c0-1.163,0.854-1.938,2.092-2.326c0.774-0.231,1.474-0.231,2.324-0.077c0.155,0.077,0.311,0.077,0.465,0.155
	c1.395,0.62,2.015,1.859,1.55,3.021c-0.233,0.542-0.696,1.006-1.316,1.316c0.153,0.465,0.077,1.008-0.078,1.473
	c0.465-0.465,1.161-0.775,1.859-1.008c0.62-0.231,1.317-0.31,2.016-0.31c0-0.386,0.153-0.696,0.386-1.006
	c0.62-0.698,1.396-1.395,2.246-1.938c0.078,0,0.157-0.077,0.233-0.077c1.163-0.543,2.555-0.155,3.641,0.696
	c0.231,0.233,0.542,0.543,0.696,0.775c0.388,0.774,0.155,1.394-0.543,1.782c-0.852,0.386-1.781,0.774-2.71,1.006
	c0.542,0.465,0.93,1.163,1.161,1.783c0.232,0.929-0.077,1.782-0.852,2.324c0.155,0.155,0.231,0.31,0.311,0.464
	c0.231,0.698,0.154,1.163-0.311,1.705c-0.154,0.154-0.31,0.311-0.542,0.465c-0.775,0.465-1.627,0.773-2.557,0.93
	c-0.854,0.078-1.627,0.078-2.479-0.076c-0.929-0.155-1.706-0.465-2.401-1.008c-0.465-0.388-0.854-0.853-1.163-1.396
	c-1.316,0.853-3.175,0.853-4.647,0.31c-0.542-0.231-1.008-0.542-1.316-1.006c-0.232-0.388-0.388-0.698-0.388-1.163
	c-0.853,0.543-1.781,0.851-2.864,1.006c-0.854,0.078-1.627,0.078-2.479-0.155c-0.931-0.308-1.859-0.928-2.325-1.78
	c-0.31,0.155-0.697,0.31-1.008,0.465c-1.083,0.464-2.246,0.698-3.408,0.619c-1.393-0.155-2.864-0.619-3.64-1.782
	c-0.388,1.318-0.929,2.712-2.092,3.642c-0.233,0.155-0.464,0.233-0.696,0.388c-0.929,0.387-1.937,0.621-2.945,0.542
	c-1.083-0.156-2.012-0.696-2.557-1.55c-0.31-0.465-0.387-1.006-0.31-1.549c0-0.078,0.077-0.155,0.077-0.31
	c-0.619-0.079-1.238-0.388-1.627-0.852c-0.772,0.542-1.701,0.773-2.632,0.928c-0.853,0.155-1.627,0.079-2.479-0.231
	c-0.389-0.155-0.776-0.386-1.086-0.696c-0.698,0.696-1.781,1.161-2.789,1.316c-0.931,0.155-1.938,0.155-2.71-0.464
	c-0.467,0.388-0.931,0.698-1.549,0.853c-0.157,0-0.311,0.077-0.467,0.077c-0.62,0.078-1.084,0.078-1.627-0.155
	c-0.23-0.077-0.463-0.231-0.695-0.31c-0.233-0.155-0.388-0.31-0.62-0.543c-0.543,0.776-1.239,1.318-2.092,1.706
	c-0.153,0.077-0.387,0.155-0.542,0.155c-0.465,0.155-0.93,0.155-1.395,0.077c-0.31-0.077-0.543-0.155-0.853-0.232
	c-0.311-0.156-0.464-0.31-0.696-0.464c-0.313-0.31-0.543-0.62-0.696-0.931c-0.078,0.078-0.078,0.156-0.156,0.233
	c-0.231,0.388-0.542,0.62-0.93,0.851c-0.155,0.079-0.31,0.155-0.542,0.155c-0.078,0-0.156,0-0.31,0.078H36.02
	c-0.388-0.078-0.698-0.155-1.008-0.386c0,0.077-0.078,0.231-0.078,0.308c-0.31,0.776-0.62,1.396-1.161,2.093
	c-0.23,0.232-0.465,0.543-0.697,0.775c-0.464,0.387-0.852,0.697-1.394,1.084c-0.31,0.154-0.62,0.309-0.931,0.465
	c-0.62,0.31-1.239,0.465-2.015,0.697c-0.23,0-0.464,0.077-0.697,0.077c-0.773,0.078-1.625,0.078-2.4-0.155
	c-0.542-0.232-1.084-0.465-1.549-0.852c-0.465-0.389-0.775-0.854-1.084-1.316c-0.311-0.543-0.465-1.162-0.543-1.782
	c0-0.155,0-0.233,0-0.388c0-1.704,0.929-3.486,2.635-4.416c-0.466-0.31-0.853-0.696-1.086-1.24
	c-0.077-0.155-0.077-0.231-0.153-0.386c-0.232-0.62-0.232-1.239-0.077-1.859c0.077-0.155,0.077-0.31,0.154-0.388
	c0.388-1.084,1.006-1.936,2.015-2.712c0.154-0.077,0.23-0.155,0.388-0.231c1.006-0.62,2.09-0.93,3.251-1.084
	C29.979,8.194,30.445,8.272,30.986,8.272 M30.288,16.173c0,0.078,0,0.155,0.078,0.233c0.078-0.078,0.078-0.233,0.154-0.31
	C30.445,16.173,30.366,16.173,30.288,16.173 M54.536,12.764c-0.156,0.543-0.312,1.008-0.389,1.549c0.077,0,0.153,0,0.232,0
	c0.078-0.465,0.232-0.93,0.31-1.316C54.611,12.919,54.536,12.842,54.536,12.764 M60.733,13.307c-0.156,0-0.232,0.077-0.388,0.077
	c-0.078,0.233-0.078,0.465-0.155,0.774c0.155,0,0.233-0.077,0.387-0.077C60.655,13.849,60.655,13.617,60.733,13.307 M67.471,9.821
	c-0.153,0.155-0.31,0.31-0.463,0.465c0,0,0,0.078,0.077,0.078c0.155-0.078,0.386-0.233,0.543-0.312
	C67.549,9.976,67.471,9.898,67.471,9.821"/>
<g>
	<g>
		<g>
			<g>
				<path id="SVGID_6_" fill="#58585B" d="M63.133,3.624C62.049,3.779,61.119,4.32,60.5,5.019c-0.62,0.774-0.774,1.625-0.311,2.479
					c-0.077-0.078-0.232-0.078-0.31-0.155c0.077-0.31,0.077-0.543,0.077-0.775c-0.077-0.31-0.153-0.464-0.387-0.774
					c-0.31-0.31-0.543-0.388-0.93-0.543c-0.155,0-0.31-0.077-0.465-0.077c-0.62,0-1.084,0.231-1.627,0.542
					c-0.773,0.465-1.471,1.008-2.012,1.472c-0.544,0.465-1.164,1.006-1.552,1.549c-0.076-0.155-0.154-0.31-0.31-0.543
					c-0.233-0.231-0.387-0.387-0.696-0.542c-0.93-0.388-1.782-0.155-2.635,0.31c-0.153,0.077-0.31,0.155-0.387,0.231
					c-0.233-0.077-0.387-0.155-0.62-0.231c-0.62-0.155-1.084-0.155-1.704-0.079c-1.706,0.31-3.099,1.549-3.875,2.867
					c-0.31,0.542-0.542,1.008-0.696,1.549c-0.154,0-0.31,0-0.387,0.078c-0.078-0.31-0.078-0.698-0.078-1.007
					c0.078-1.161,0.388-2.324,0.774-3.487c0.154-0.464,0.387-1.006,0.465-1.471c0.078-0.31,0.078-0.543,0.078-0.774
					c-0.078-0.155-0.078-0.388-0.156-0.543c-0.077-0.077-0.077-0.155-0.153-0.232c-0.079-0.078-0.156-0.155-0.232-0.233
					c-0.077-0.077-0.155-0.155-0.311-0.155c-0.154,0-0.232-0.077-0.387-0.155c-0.078,0-0.233-0.077-0.31-0.077
					c-0.311,0-0.544,0-0.854,0c-0.31,0.077-0.543,0.155-0.774,0.31c-0.774,0.386-1.471,0.774-2.092,1.316
					c-0.695,0.543-1.238,1.163-1.704,1.782c0-0.388-0.077-0.62-0.23-0.929c-0.698-0.93-1.859-0.93-2.867-0.388
					c-0.079,0.078-0.155,0.078-0.232,0.155c-0.619,0-1.238-0.077-1.858-0.077c-0.621-0.078-1.241-0.155-1.86-0.155
					c-0.465,0-0.93,0-1.473,0c-1.161,0.155-2.246,0.542-3.251,1.161c-0.157,0.078-0.233,0.155-0.388,0.233
					c-1.009,0.851-1.628,1.781-1.938,2.867c-0.079,0.155-0.079,0.31-0.155,0.465c-0.154,0.696-0.077,1.316,0.155,2.014l0.156,0.387
					c0.308,0.543,0.62,0.93,1.161,1.239c-1.706,1.008-2.636,2.945-2.558,4.726c0,0.155,0,0.31,0,0.387
					c0.079,0.698,0.232,1.241,0.542,1.86c0.311,0.542,0.62,1.006,1.163,1.395c0.465,0.387,1.008,0.697,1.551,0.852
					c0.773,0.232,1.626,0.232,2.4,0.154c0.231-0.076,0.465-0.076,0.698-0.154c0.695-0.154,1.315-0.387,2.012-0.695
					c0.31-0.156,0.62-0.311,0.931-0.543c0.465-0.311,0.929-0.697,1.395-1.084c0.23-0.232,0.465-0.542,0.698-0.775
					c0.542-0.696,0.852-1.395,1.083-2.247c0-0.155,0.077-0.23,0.077-0.387c0.311,0.31,0.62,0.387,1.009,0.465c0.077,0,0.23,0,0.31,0
					c0.077,0,0.231,0,0.311-0.078c0.152-0.077,0.31-0.155,0.542-0.155c0.388-0.231,0.697-0.464,0.93-0.851
					c0.078-0.077,0.078-0.155,0.155-0.233c0.232,0.388,0.465,0.698,0.773,1.008c0.231,0.23,0.465,0.31,0.774,0.464
					c0.312,0.079,0.543,0.155,0.853,0.233c0.542,0.077,0.931,0,1.395-0.155c0.154-0.079,0.387-0.155,0.543-0.233
					c0.851-0.388,1.549-1.006,2.09-1.782c0.155,0.233,0.388,0.388,0.62,0.543c0.231,0.155,0.465,0.233,0.697,0.31
					c0.62,0.155,1.083,0.232,1.703,0.155c0.156,0,0.311-0.077,0.467-0.077c0.619-0.233,1.084-0.543,1.549-0.931
					c0.773,0.621,1.779,0.621,2.71,0.465c1.008-0.232,2.092-0.696,2.789-1.471c0.31,0.31,0.697,0.542,1.086,0.775
					c0.851,0.31,1.627,0.386,2.479,0.231c0.931-0.155,1.859-0.465,2.634-1.006c0.387,0.465,1.007,0.851,1.704,0.93
					c0,0.077-0.079,0.231-0.079,0.31c-0.076,0.62,0.079,1.084,0.389,1.627c0.542,0.928,1.549,1.471,2.635,1.626
					c1.006,0.078,2.012-0.231,2.942-0.62c0.232-0.155,0.466-0.231,0.697-0.387c1.239-1.007,1.781-2.402,2.091-3.875
					c0.853,1.163,2.246,1.704,3.72,1.783c1.239,0.077,2.401-0.155,3.484-0.698c0.389-0.155,0.698-0.31,1.009-0.542
					c0.465,0.93,1.394,1.549,2.324,1.859c0.852,0.231,1.626,0.231,2.479,0.155c1.083-0.155,2.012-0.465,2.865-1.084
					c0.077,0.465,0.154,0.774,0.387,1.161c0.388,0.465,0.776,0.776,1.317,1.008c1.473,0.541,3.407,0.388,4.726-0.465
					c0.31,0.543,0.698,1.006,1.161,1.394c0.776,0.543,1.549,0.853,2.479,1.008c0.854,0.077,1.706,0.155,2.48,0
					c0.929-0.155,1.859-0.543,2.633-1.084c0.232-0.156,0.388-0.312,0.542-0.464c0.466-0.62,0.543-1.086,0.311-1.859
					c-0.077-0.155-0.232-0.388-0.311-0.543c0.776-0.62,1.086-1.472,0.854-2.479c-0.155-0.698-0.543-1.394-1.163-1.859
					c1.007-0.31,1.858-0.62,2.788-1.084c0.775-0.465,0.93-1.163,0.543-1.937c-0.155-0.31-0.387-0.542-0.696-0.853
					c-1.008-0.93-2.479-1.316-3.718-0.696c-0.078,0.077-0.157,0.077-0.233,0.155c-0.853,0.62-1.625,1.316-2.323,2.092
					c-0.232,0.31-0.388,0.696-0.388,1.084c-0.698,0-1.395,0.155-2.091,0.386c-0.698,0.233-1.396,0.62-1.938,1.084
					c0.155-0.465,0.231-1.006,0.078-1.549c0.62-0.31,1.083-0.775,1.394-1.395c0.466-1.239-0.231-2.557-1.626-3.176
					c-0.155-0.077-0.311-0.155-0.465-0.155c-0.852-0.231-1.549-0.155-2.323,0.079c-1.239,0.464-2.092,1.239-2.092,2.479
					c0,0.31,0.077,0.542,0.154,0.851l-0.154,0.078c-0.155-0.233-0.311-0.388-0.542-0.62c-0.93-0.774-2.325-1.008-3.408-0.541
					c-0.776-0.698-2.168-0.776-3.177-0.698c-0.775,0.077-1.396,0.387-2.016,0.698c-0.696-0.853-1.625-1.318-2.789-1.473
					c-1.702-0.233-3.483,0.155-4.879,1.084c0,0-0.078-0.155-0.156-0.31c0.776-0.62,1.239-1.394,1.086-2.324
					c-0.079-0.62-0.388-1.163-0.93-1.627c-0.929-0.696-1.937-0.774-3.021-0.541c-0.774,0.231-1.55,0.62-2.015,1.239
					c-0.154-0.31-0.388-0.62-0.698-0.853c-0.619-0.465-1.238-0.696-2.012-0.696C63.443,3.546,63.288,3.624,63.133,3.624"/>
			</g>
			<g>
				<g>
					<g>
						<defs>
							<path id="SVGID_4_" d="M63.133,3.624C62.049,3.779,61.119,4.32,60.5,5.019c-0.62,0.774-0.774,1.625-0.311,2.479
								c-0.077-0.078-0.232-0.078-0.31-0.155c0.077-0.31,0.077-0.543,0.077-0.775c-0.077-0.31-0.153-0.464-0.387-0.774
								c-0.31-0.31-0.543-0.388-0.93-0.543c-0.155,0-0.31-0.077-0.465-0.077c-0.62,0-1.084,0.231-1.627,0.542
								c-0.773,0.465-1.471,1.008-2.012,1.472c-0.544,0.465-1.164,1.006-1.552,1.549c-0.076-0.155-0.154-0.31-0.31-0.543
								c-0.233-0.231-0.387-0.387-0.696-0.542c-0.93-0.388-1.782-0.155-2.635,0.31c-0.153,0.077-0.31,0.155-0.387,0.231
								c-0.233-0.077-0.387-0.155-0.62-0.231c-0.62-0.155-1.084-0.155-1.704-0.079c-1.706,0.31-3.099,1.549-3.875,2.867
								c-0.31,0.542-0.542,1.008-0.696,1.549c-0.154,0-0.31,0-0.387,0.078c-0.078-0.31-0.078-0.698-0.078-1.007
								c0.078-1.161,0.388-2.324,0.774-3.487c0.154-0.464,0.387-1.006,0.465-1.471c0.078-0.31,0.078-0.543,0.078-0.774
								c-0.078-0.155-0.078-0.388-0.156-0.543c-0.077-0.077-0.077-0.155-0.153-0.232c-0.079-0.078-0.156-0.155-0.232-0.233
								c-0.077-0.077-0.155-0.155-0.311-0.155c-0.154,0-0.232-0.077-0.387-0.155c-0.078,0-0.233-0.077-0.31-0.077
								c-0.311,0-0.544,0-0.854,0c-0.31,0.077-0.543,0.155-0.774,0.31c-0.774,0.386-1.471,0.774-2.092,1.316
								c-0.695,0.543-1.238,1.163-1.704,1.782c0-0.388-0.077-0.62-0.23-0.929c-0.698-0.93-1.859-0.93-2.867-0.388
								c-0.079,0.078-0.155,0.078-0.232,0.155c-0.619,0-1.238-0.077-1.858-0.077c-0.621-0.078-1.241-0.155-1.86-0.155
								c-0.465,0-0.93,0-1.473,0c-1.161,0.155-2.246,0.542-3.251,1.161c-0.157,0.078-0.233,0.155-0.388,0.233
								c-1.009,0.851-1.628,1.781-1.938,2.867c-0.079,0.155-0.079,0.31-0.155,0.465c-0.154,0.696-0.077,1.316,0.155,2.014
								l0.156,0.387c0.308,0.543,0.62,0.93,1.161,1.239c-1.706,1.008-2.636,2.945-2.558,4.726c0,0.155,0,0.31,0,0.387
								c0.079,0.698,0.232,1.241,0.542,1.86c0.311,0.542,0.62,1.006,1.163,1.395c0.465,0.387,1.008,0.697,1.551,0.852
								c0.773,0.232,1.626,0.232,2.4,0.154c0.231-0.076,0.465-0.076,0.698-0.154c0.695-0.154,1.315-0.387,2.012-0.695
								c0.31-0.156,0.62-0.311,0.931-0.543c0.465-0.311,0.929-0.697,1.395-1.084c0.23-0.232,0.465-0.542,0.698-0.775
								c0.542-0.696,0.852-1.395,1.083-2.247c0-0.155,0.077-0.23,0.077-0.387c0.311,0.31,0.62,0.387,1.009,0.465
								c0.077,0,0.23,0,0.31,0c0.077,0,0.231,0,0.311-0.078c0.152-0.077,0.31-0.155,0.542-0.155c0.388-0.231,0.697-0.464,0.93-0.851
								c0.078-0.077,0.078-0.155,0.155-0.233c0.232,0.388,0.465,0.698,0.773,1.008c0.231,0.23,0.465,0.31,0.774,0.464
								c0.312,0.079,0.543,0.155,0.853,0.233c0.542,0.077,0.931,0,1.395-0.155c0.154-0.079,0.387-0.155,0.543-0.233
								c0.851-0.388,1.549-1.006,2.09-1.782c0.155,0.233,0.388,0.388,0.62,0.543c0.231,0.155,0.465,0.233,0.697,0.31
								c0.62,0.155,1.083,0.232,1.703,0.155c0.156,0,0.311-0.077,0.467-0.077c0.619-0.233,1.084-0.543,1.549-0.931
								c0.773,0.621,1.779,0.621,2.71,0.465c1.008-0.232,2.092-0.696,2.789-1.471c0.31,0.31,0.697,0.542,1.086,0.775
								c0.851,0.31,1.627,0.386,2.479,0.231c0.931-0.155,1.859-0.465,2.634-1.006c0.387,0.465,1.007,0.851,1.704,0.93
								c0,0.077-0.079,0.231-0.079,0.31c-0.076,0.62,0.079,1.084,0.389,1.627c0.542,0.928,1.549,1.471,2.635,1.626
								c1.006,0.078,2.012-0.231,2.942-0.62c0.232-0.155,0.466-0.231,0.697-0.387c1.239-1.007,1.781-2.402,2.091-3.875
								c0.853,1.163,2.246,1.704,3.72,1.783c1.239,0.077,2.401-0.155,3.484-0.698c0.389-0.155,0.698-0.31,1.009-0.542
								c0.465,0.93,1.394,1.549,2.324,1.859c0.852,0.231,1.626,0.231,2.479,0.155c1.083-0.155,2.012-0.465,2.865-1.084
								c0.077,0.465,0.154,0.774,0.387,1.161c0.388,0.465,0.776,0.776,1.317,1.008c1.473,0.541,3.407,0.388,4.726-0.465
								c0.31,0.543,0.698,1.006,1.161,1.394c0.776,0.543,1.549,0.853,2.479,1.008c0.854,0.077,1.706,0.155,2.48,0
								c0.929-0.155,1.859-0.543,2.633-1.084c0.232-0.156,0.388-0.312,0.542-0.464c0.466-0.62,0.543-1.086,0.311-1.859
								c-0.077-0.155-0.232-0.388-0.311-0.543c0.776-0.62,1.086-1.472,0.854-2.479c-0.155-0.698-0.543-1.394-1.163-1.859
								c1.007-0.31,1.858-0.62,2.788-1.084c0.775-0.465,0.93-1.163,0.543-1.937c-0.155-0.31-0.387-0.542-0.696-0.853
								c-1.008-0.93-2.479-1.316-3.718-0.696c-0.078,0.077-0.157,0.077-0.233,0.155c-0.853,0.62-1.625,1.316-2.323,2.092
								c-0.232,0.31-0.388,0.696-0.388,1.084c-0.698,0-1.395,0.155-2.091,0.386c-0.698,0.233-1.396,0.62-1.938,1.084
								c0.155-0.465,0.231-1.006,0.078-1.549c0.62-0.31,1.083-0.775,1.394-1.395c0.466-1.239-0.231-2.557-1.626-3.176
								c-0.155-0.077-0.311-0.155-0.465-0.155c-0.852-0.231-1.549-0.155-2.323,0.079c-1.239,0.464-2.092,1.239-2.092,2.479
								c0,0.31,0.077,0.542,0.154,0.851l-0.154,0.078c-0.155-0.233-0.311-0.388-0.542-0.62c-0.93-0.774-2.325-1.008-3.408-0.541
								c-0.776-0.698-2.168-0.776-3.177-0.698c-0.775,0.077-1.396,0.387-2.016,0.698c-0.696-0.853-1.625-1.318-2.789-1.473
								c-1.702-0.233-3.483,0.155-4.879,1.084c0,0-0.078-0.155-0.156-0.31c0.776-0.62,1.239-1.394,1.086-2.324
								c-0.079-0.62-0.388-1.163-0.93-1.627c-0.929-0.696-1.937-0.774-3.021-0.541c-0.774,0.231-1.55,0.62-2.015,1.239
								c-0.154-0.31-0.388-0.62-0.698-0.853c-0.619-0.465-1.238-0.696-2.012-0.696C63.443,3.546,63.288,3.624,63.133,3.624"/>
						</defs>
						<use xlink:href="#SVGID_4_"  overflow="visible" fill="#58585B"/>
						<clipPath id="SVGID_5_">
							<use xlink:href="#SVGID_4_"  overflow="visible"/>
						</clipPath>
						<rect x="20.527" y="3.546" clip-path="url(#SVGID_5_)" fill="#58585B" width="84.438" height="20.605"/>
					</g>
				</g>
			</g>
		</g>
	</g>
</g>
<path fill="#FFFFFF" d="M23.86,15.398c0.931-0.541,3.1-1.239,3.408-0.386c0.153,0.465-0.543,0.851-0.388,1.239
	c0.155,0.386,0.62,0.696,1.549,0.31c1.549-0.62,1.781-4.261,2.789-6.818c-1.161-0.31-1.938-0.155-2.4,0.466
	c-0.466,1.083,1.009,0.077,1.084,0.696c0.155,1.394-2.092,3.021-3.72,3.176c-2.09,0.232-3.718-1.394-3.251-3.176
	c0.463-1.936,1.937-3.253,4.028-3.718c1.625-0.31,4.183,0.31,5.965,0.155c0.851-0.62,1.859-0.698,1.781,0.386
	c-0.078,1.396,0.154,2.557,0.465,3.796c1.393-3.795,3.33-5.344,5.344-6.274c0.774-0.31,1.316,0,1.084,1.084
	c-1.084,3.098-1.781,5.81-0.542,7.049c0.463,0.465,1.626-1.006,1.471,0.853c-0.31,3.098-3.485,4.492-4.726,2.788
	c-1.161-1.627-0.698-3.641-0.388-5.655c-0.852,1.394-1.472,4.57-2.09,5.577c-0.543,0.622-1.239,0.698-1.396-0.231
	c-0.31-1.859-0.62-3.873-1.163-4.958c0,2.246-0.077,4.493-0.62,6.352c-0.851,3.021-4.492,5.19-7.591,4.647
	c-1.472-0.465-2.479-1.626-2.633-3.563C21.613,17.645,22.697,15.941,23.86,15.398 M48.881,9.511
	c1.006-0.774,2.479-1.549,2.865-0.464c0.232,1.163-0.466,2.479-0.466,3.718c-0.077,0.774,0.155,1.163,0.543,1.008
	c0.775-0.388,1.317-0.31,1.162,0.31c-0.386,0.775-0.773,1.471-2.479,2.014c-0.854,0.231-1.782,0.31-2.169-0.31
	c-0.155-0.155-0.311-0.543-0.464-0.929c-0.698,1.239-2.402,2.712-4.028,1.549c-0.698-0.698-1.163-1.627-0.853-3.331
	c0.31-1.316,1.006-2.634,2.401-3.563C46.712,8.658,47.874,8.582,48.881,9.511 M47.718,11.06c-0.386-0.077-0.774,0.231-0.853,1.008
	c-0.077,0.774,0.388,0.851,0.775,0.774c0.463-0.155,0.542-0.465,0.62-0.853C48.261,11.603,48.183,11.215,47.718,11.06
	 M57.788,10.364c-0.153,0.851-0.311,1.704-0.463,2.633c-0.078,0.696,0.387,0.696,0.851,0.465c1.161-0.465,1.627-0.233,1.395,0.465
	c-0.465,0.774-1.162,1.316-2.323,1.626s-2.169,0.388-3.021-0.31c-0.387-0.31-0.62-0.929-0.543-1.704
	c0.157-0.851,0.466-2.014,0.698-3.02c-0.542-0.078-0.93-0.543-0.542-1.086c0.463-0.696,3.408-3.175,4.183-3.098
	c0.543,0,0.696,0.31,0.543,0.853c-0.155,0.387-0.232,0.852-0.388,1.24c0.388,0,0.775,0,1.161,0c0.388,0.076,0.466,0.386,0.466,0.698
	c0,0.308-0.078,0.618-0.31,0.851c-0.233,0.388-0.62,0.465-1.086,0.465C58.254,10.364,58.021,10.364,57.788,10.364 M61.353,7.109
	c-0.466-0.929,0.153-1.781,1.316-2.324c1.241-0.542,2.324,0,2.634,0.853c0.233,0.62-0.31,1.471-1.24,1.859
	C63.133,7.883,61.739,7.883,61.353,7.109 M60.345,9.047c1.161-0.853,2.324-1.24,3.408-1.008c0.853,0.155,0.853,1.008,0.62,1.782
	c-0.311,1.008-0.542,1.782-0.773,2.789c-0.157,0.388,0.311,0.853,0.852,0.62c0.774-0.387,1.084,0.233,0.774,0.698
	c-0.465,0.774-1.163,1.239-2.401,1.549c-1.317,0.231-2.4,0.077-2.711-1.008c-0.156-0.542-0.077-1.161,0-1.704
	c0.231-1.006,0.387-1.859,0.62-2.867C60.886,9.511,60.035,9.433,60.345,9.047 M67.084,7.109c-0.388-0.929,0.232-1.781,1.394-2.246
	c1.318-0.464,2.324,0.077,2.558,1.006c0.152,0.698-0.311,1.473-1.318,1.782C68.867,7.962,67.471,7.962,67.084,7.109 M66.078,9.047
	c1.238-0.853,2.399-1.084,3.484-0.853c0.854,0.233,0.774,1.084,0.543,1.859c-0.62,1.782-1.086,3.41-1.473,5.269
	c-0.31,1.084-0.854,2.865-2.168,3.408c-1.163,0.465-2.324,0.698-3.253,0.079c-0.698-0.467-1.008-1.084-0.929-1.627
	c0.076-0.388,0.31-0.31,0.463-0.155c0.854,0.465,1.937,0.155,2.247-0.853c0.619-2.091,1.086-4.259,1.473-6.197
	C66.62,9.588,65.69,9.356,66.078,9.047 M89.548,9.743c-0.233-1.006,0.465-1.704,1.783-2.014c1.316-0.231,2.323,0.465,2.399,1.396
	c0.079,0.696-0.541,1.394-1.549,1.549C91.176,10.829,89.782,10.595,89.548,9.743 M88.232,11.448c1.316-0.62,2.558-0.698,3.563-0.31
	c0.853,0.387,0.62,1.161,0.31,1.936c-0.465,0.929-0.93,1.627-1.315,2.557c-0.233,0.31,0.077,0.93,0.695,0.774
	c0.854-0.233,1.007,0.387,0.696,0.852c-0.62,0.62-1.393,1.008-2.71,1.008c-1.317-0.079-2.325-0.388-2.479-1.549
	c-0.078-0.543,0.152-1.163,0.31-1.704c0.386-0.93,0.773-1.782,1.161-2.712C88.619,11.99,87.766,11.758,88.232,11.448 M74.134,13.153
	c1.161,0,2.169,0,3.33-0.698c0.62-0.386,1.163-1.084,0.93-2.09c-0.23-0.853-1.083-1.706-2.71-1.782
	c-1.781-0.079-3.408,0.543-4.416,1.704c-0.773,0.929-1.317,2.092-0.773,3.718c0.31,0.93,1.006,1.704,2.711,1.937
	c1.008,0.155,2.091,0.077,3.253-0.464c0.853-0.388,1.782-0.775,1.936-1.704c0.078-0.465-0.23-0.698-0.772-0.62
	c-0.62,0.077-1.55,0.774-2.402,0.696C74.212,13.849,73.824,13.539,74.134,13.153 M74.365,11.215c0.077-0.31,0.388-0.62,0.697-0.774
	c0.389-0.155,0.775,0.155,0.62,0.465C75.604,11.292,74.908,11.448,74.365,11.215 M79.556,10.441
	c-0.155-0.155,0.077-0.31,0.155-0.388c0.62-0.386,1.396-0.696,2.635-0.62c0.696,0.078,1.393,0.31,1.316,1.008
	c0,0.62-0.311,1.239-0.62,1.859c-0.311,0.62-0.62,1.318-0.62,1.859c0,0.388,0.543,0.62,1.239,0.31
	c0.543-0.231,1.163-1.239,1.315-1.781c-0.541-0.078-1.393-0.31-1.315-1.317c0.076-0.62,0.387-1.395,1.315-1.549
	c1.008-0.233,2.402,0.465,2.479,1.549c0.078,1.163-0.463,2.247-1.394,3.408c-0.775,0.93-1.706,1.627-3.255,1.859
	c-1.315,0.155-2.399,0.079-3.33-0.774c-0.388-0.386-0.853-1.006-0.543-2.245c0.233-0.93,0.696-1.859,0.931-2.867
	C79.942,10.75,79.789,10.674,79.556,10.441 M98.147,14.392c-0.31,0.465-0.463,1.394,0.157,1.781c0.463,0.31,1.239,0.774,2.322,0.078
	c0.543-0.388,0.853-1.163,0.232-2.169c-0.62-1.007-2.169-1.549-3.332-1.472c-1.008,0-1.704,0.233-2.168,0.465
	c-0.852,0.31-1.239,0.774-1.628,1.394c-1.006,1.239-0.929,2.712-0.386,3.718c0.465,0.853,1.394,1.706,3.486,1.861
	c1.161,0.077,1.936,0,3.484-0.853c0.543-0.31,0.854-0.853,0.467-1.317c-0.157-0.153-0.544-0.153-1.087-0.077
	c-0.93,0.077-1.858,0.155-2.399-0.465c-0.311-0.31-0.465-0.698-0.233-1.704C97.139,14.857,97.759,14.314,98.147,14.392
	 M98.767,11.06c0.62-0.696,1.318-1.317,2.092-1.859c0.233-0.155,0.696-0.31,1.084-0.155c0.466,0.078,0.93,0.31,1.472,1.006
	c0.156,0.233,0.156,0.543-0.153,0.698c-1.163,0.62-2.402,1.008-3.641,1.318c-0.311,0.077-0.696,0.155-0.854,0
	C98.535,11.758,98.535,11.37,98.767,11.06"/>
<path fill="none" stroke="#231F20" stroke-width="0.1067" stroke-miterlimit="10" d="M23.844,15.406
	c0.93-0.543,3.098-1.239,3.33-0.388c0.155,0.465-0.541,0.853-0.388,1.241c0.155,0.386,0.619,0.696,1.549,0.31
	c1.551-0.62,1.782-4.261,2.79-6.818c-1.163-0.31-1.938-0.155-2.402,0.465c-0.465,1.084,1.008,0.078,1.086,0.698
	c0.153,1.396-2.094,3.021-3.719,3.175c-2.014,0.31-3.563-1.239-3.175-3.099c0.463-1.936,1.936-3.253,4.027-3.718
	c1.626-0.31,4.184,0.31,5.966,0.155c0.851-0.62,1.858-0.698,1.779,0.387c-0.078,1.396,0.155,2.557,0.465,3.796
	c1.396-3.796,3.332-5.345,5.346-6.274c0.774-0.31,1.315,0,1.084,1.084c-1.084,3.1-1.781,5.811-0.541,7.05
	c0.463,0.464,1.625-1.006,1.471,0.853c-0.31,3.099-3.486,4.493-4.726,2.789c-1.161-1.627-0.698-3.641-0.389-5.655
	c-0.851,1.395-1.471,4.571-2.091,5.577c-0.541,0.621-1.239,0.698-1.394-0.232c-0.311-1.859-0.62-3.873-1.163-4.957
	c0,2.246-0.077,4.493-0.62,6.352c-0.852,3.021-4.493,5.19-7.591,4.647c-1.474-0.465-2.479-1.626-2.634-3.563
	C21.673,17.653,22.758,15.949,23.844,15.406 M48.941,9.519c1.006-0.774,2.479-1.551,2.865-0.465
	c0.233,1.161-0.463,2.479-0.463,3.718c-0.078,0.774,0.153,1.161,0.542,1.006c0.774-0.386,1.318-0.31,1.161,0.31
	c-0.387,0.774-0.773,1.472-2.479,2.014c-0.852,0.233-1.78,0.31-2.169-0.31c-0.152-0.155-0.31-0.542-0.463-0.93
	c-0.698,1.239-2.404,2.712-4.03,1.549c-0.695-0.696-1.162-1.626-0.853-3.33c0.31-1.317,1.008-2.633,2.402-3.563
	C46.696,8.666,47.936,8.588,48.941,9.519z M47.702,11.069c-0.387-0.079-0.774,0.231-0.854,1.006
	c-0.077,0.775,0.388,0.853,0.776,0.775c0.463-0.155,0.542-0.465,0.62-0.853C48.245,11.61,48.245,11.223,47.702,11.069 M57.771,10.37
	c-0.152,0.853-0.31,1.704-0.463,2.634c-0.079,0.698,0.386,0.698,0.852,0.465c1.16-0.465,1.627-0.232,1.394,0.464
	c-0.464,0.775-1.163,1.318-2.324,1.627c-1.161,0.31-2.168,0.388-3.021-0.31c-0.387-0.31-0.62-0.93-0.543-1.704
	c0.156-0.853,0.466-2.014,0.697-3.021c-0.541-0.077-0.929-0.542-0.541-1.084c0.464-0.696,3.408-3.177,4.184-3.098
	c0.543,0,0.696,0.31,0.543,0.851c-0.157,0.388-0.233,0.853-0.388,1.239c0.388,0,0.773,0,1.16,0c0.389,0.078,0.467,0.388,0.467,0.698
	s-0.078,0.62-0.311,0.853c-0.232,0.386-0.62,0.465-1.086,0.465C58.314,10.37,58.005,10.37,57.771,10.37z M61.336,7.117
	c-0.467-0.93,0.152-1.782,1.316-2.324c1.239-0.543,2.322,0,2.633,0.851c0.232,0.62-0.311,1.473-1.239,1.861
	C63.195,7.892,61.723,7.892,61.336,7.117 M60.407,9.054c1.16-0.853,2.323-1.241,3.407-1.008c0.852,0.155,0.852,1.008,0.62,1.783
	c-0.31,1.006-0.542,1.78-0.775,2.788c-0.153,0.387,0.312,0.852,0.854,0.62c0.773-0.388,1.083,0.232,0.773,0.696
	c-0.466,0.775-1.161,1.24-2.4,1.549c-1.317,0.233-2.402,0.078-2.712-1.006c-0.155-0.543-0.077-1.163,0-1.704
	c0.233-1.008,0.387-1.859,0.62-2.867C60.87,9.519,60.019,9.441,60.407,9.054 M67.145,7.117c-0.386-0.93,0.233-1.782,1.396-2.247
	c1.315-0.465,2.321,0.078,2.557,1.008c0.153,0.696-0.312,1.471-1.318,1.782C68.927,7.968,67.455,7.892,67.145,7.117 M66.139,9.054
	c1.239-0.853,2.402-1.086,3.408-0.853c0.853,0.231,0.773,1.084,0.543,1.859c-0.62,1.782-1.086,3.408-1.473,5.267
	c-0.311,1.084-0.854,2.867-2.17,3.41c-1.162,0.465-2.323,0.696-3.253,0.077c-0.697-0.465-1.008-1.084-0.93-1.626
	c0.077-0.388,0.311-0.31,0.465-0.156c0.852,0.466,1.937,0.156,2.246-0.852c0.62-2.092,1.086-4.261,1.472-6.196
	C66.604,9.596,65.752,9.364,66.139,9.054z M89.61,9.751c-0.232-1.006,0.466-1.704,1.783-2.014c1.316-0.231,2.322,0.465,2.4,1.394
	c0.079,0.698-0.541,1.395-1.549,1.549C91.236,10.834,89.844,10.526,89.61,9.751 M88.216,11.455c1.317-0.62,2.557-0.696,3.563-0.31
	c0.854,0.388,0.62,1.163,0.311,1.937c-0.465,0.93-0.93,1.626-1.316,2.555c-0.232,0.312,0.077,0.931,0.696,0.775
	c0.853-0.232,1.006,0.388,0.696,0.853c-0.62,0.62-1.394,1.008-2.71,1.008c-1.317-0.078-2.325-0.388-2.479-1.549
	c-0.078-0.543,0.153-1.163,0.311-1.706c0.387-0.929,0.774-1.781,1.16-2.71C88.603,11.998,87.828,11.688,88.216,11.455z
	 M74.118,13.159c1.16,0,2.168,0,3.329-0.696c0.62-0.388,1.163-1.084,0.931-2.092c-0.232-0.851-1.083-1.704-2.71-1.782
	c-1.781-0.077-3.408,0.543-4.416,1.706c-0.774,0.93-1.317,2.091-0.774,3.718c0.311,0.929,1.008,1.704,2.712,1.937
	c1.008,0.153,2.09,0.077,3.253-0.466c0.854-0.386,1.783-0.774,1.937-1.704c0.078-0.465-0.232-0.696-0.773-0.62
	c-0.62,0.078-1.549,0.774-2.401,0.698C74.272,13.857,73.886,13.547,74.118,13.159z M74.427,11.223
	c0.078-0.31,0.388-0.62,0.698-0.774c0.387-0.155,0.772,0.155,0.62,0.464C75.588,11.3,74.892,11.455,74.427,11.223z M79.541,10.37
	c-0.157-0.155,0.077-0.31,0.152-0.386c0.62-0.388,1.396-0.698,2.636-0.62c0.695,0.077,1.393,0.31,1.315,1.006
	c0,0.62-0.31,1.239-0.62,1.859c-0.31,0.62-0.62,1.317-0.62,1.859c0,0.388,0.543,0.62,1.239,0.31
	c0.543-0.231,1.163-1.239,1.316-1.781c-0.542-0.078-1.394-0.31-1.316-1.317c0.077-0.62,0.386-1.394,1.316-1.549
	c1.008-0.231,2.401,0.465,2.479,1.549c0.079,1.163-0.463,2.247-1.393,3.408c-0.776,0.929-1.706,1.627-3.255,1.86
	c-1.316,0.155-2.4,0.077-3.33-0.776c-0.389-0.387-0.854-1.006-0.543-2.246c0.232-0.93,0.698-1.859,0.931-2.867
	C80.004,10.758,79.772,10.68,79.541,10.37 M98.209,14.398c-0.311,0.465-0.465,1.395,0.154,1.782c0.466,0.31,1.239,0.775,2.324,0.079
	c0.542-0.388,0.853-1.163,0.232-2.17c-0.62-1.006-2.169-1.549-3.33-1.471c-1.008,0-1.706,0.232-2.169,0.465
	c-0.854,0.31-1.239,0.774-1.627,1.395c-1.007,1.239-0.929,2.711-0.389,3.718c0.467,0.853,1.396,1.704,3.486,1.859
	c1.163,0.078,1.938,0,3.486-0.851c0.542-0.31,0.851-0.853,0.465-1.318c-0.155-0.155-0.543-0.155-1.084-0.077
	c-0.93,0.077-1.859,0.155-2.402-0.464c-0.31-0.312-0.464-0.698-0.232-1.706C97.201,14.863,97.821,14.321,98.209,14.398z
	 M98.829,11.069c0.62-0.698,1.317-1.318,2.091-1.859c0.232-0.155,0.698-0.31,1.086-0.155c0.463,0.077,0.929,0.31,1.471,1.006
	c0.155,0.233,0.155,0.543-0.155,0.698c-1.162,0.62-2.401,1.006-3.641,1.316c-0.31,0.079-0.697,0.155-0.852,0
	C98.519,11.765,98.519,11.378,98.829,11.069"/>
<path fill="#58585B" d="M93.19,31.899c-20.374-3.563-41.21-3.563-61.584,0c-0.388-2.246-0.775-4.57-1.161-6.818
	c21.146-3.718,42.839-3.718,63.984,0C93.964,27.329,93.578,29.653,93.19,31.899"/>
<path fill="#58585B" d="M93.19,31.899L93.19,31.899c-10.225-1.781-20.526-2.634-30.831-2.634c-10.303,0-20.604,0.853-30.832,2.634
	c-0.386-2.246-0.772-4.57-1.16-6.818c10.612-1.858,21.303-2.788,31.992-2.788c10.69,0,21.379,0.93,31.992,2.788
	C93.964,27.329,93.578,29.653,93.19,31.899L93.19,31.899L93.19,31.899c0.389-2.246,0.774-4.57,1.161-6.818
	c-10.613-1.858-21.302-2.788-31.992-2.788c-10.688,0-21.38,0.93-31.992,2.788c0.388,2.248,0.774,4.572,1.16,6.818
	c10.227-1.781,20.529-2.634,30.832-2.634C72.663,29.265,83.042,30.116,93.19,31.899L93.19,31.899z"/>
<path fill="#FFFFFF" d="M32.535,27.329c0.154,0,0.23-0.077,0.388-0.077c0.153,0.774,0.31,1.626,0.386,2.399
	c-0.077,0-0.232,0.078-0.31,0.078C32.845,28.956,32.69,28.104,32.535,27.329"/>
<path fill="none" stroke="#FFFFFF" stroke-width="0.0439" stroke-miterlimit="10" d="M32.535,27.329c0.154,0,0.23-0.077,0.388-0.077
	c0.153,0.774,0.31,1.626,0.386,2.399c-0.077,0-0.232,0.078-0.31,0.078C32.845,28.956,32.69,28.104,32.535,27.329z"/>
<path fill="#FFFFFF" d="M33.543,27.173c0.077,0,0.23,0,0.31-0.077c0.773,0.542,1.472,1.083,2.245,1.626
	c-0.077-0.618-0.232-1.315-0.31-1.937c0.077,0,0.232,0,0.31-0.077c0.155,0.774,0.233,1.627,0.387,2.401c-0.076,0-0.152,0-0.31,0.076
	c-0.773-0.541-1.549-1.16-2.322-1.703c0.076,0.695,0.231,1.316,0.311,2.014c-0.078,0-0.233,0-0.311,0.078L33.543,27.173z"/>
<path fill="none" stroke="#FFFFFF" stroke-width="0.0439" stroke-miterlimit="10" d="M33.543,27.173c0.077,0,0.23,0,0.31-0.077
	c0.773,0.542,1.472,1.083,2.245,1.626c-0.077-0.618-0.232-1.315-0.31-1.937c0.077,0,0.232,0,0.31-0.077
	c0.155,0.774,0.233,1.627,0.387,2.401c-0.076,0-0.152,0-0.31,0.076c-0.773-0.541-1.549-1.16-2.322-1.703
	c0.076,0.695,0.231,1.316,0.311,2.014c-0.078,0-0.233,0-0.311,0.078L33.543,27.173z"/>
<path fill="#FFFFFF" d="M36.794,26.63c0.388-0.077,0.698-0.077,1.086-0.155c1.008-0.152,1.704,0.311,1.781,1.008l0,0
	c0.079,0.696-0.541,1.317-1.472,1.473c-0.388,0.078-0.697,0.078-1.086,0.156C37.028,28.257,36.951,27.483,36.794,26.63
	 M38.19,28.647c0.774-0.078,1.239-0.621,1.161-1.164l0,0c-0.077-0.543-0.62-0.929-1.395-0.773c-0.233,0-0.464,0.076-0.696,0.076
	c0.077,0.623,0.153,1.318,0.31,1.938C37.724,28.722,37.957,28.722,38.19,28.647"/>
<path fill="none" stroke="#FFFFFF" stroke-width="0.0439" stroke-miterlimit="10" d="M36.794,26.63
	c0.388-0.077,0.698-0.077,1.086-0.155c1.008-0.152,1.704,0.311,1.781,1.008l0,0c0.079,0.696-0.541,1.317-1.472,1.473
	c-0.388,0.078-0.697,0.078-1.086,0.156C37.028,28.257,36.951,27.483,36.794,26.63z M38.19,28.647
	c0.774-0.078,1.239-0.621,1.161-1.164l0,0c-0.077-0.543-0.62-0.929-1.395-0.773c-0.233,0-0.464,0.076-0.696,0.076
	c0.077,0.623,0.153,1.318,0.31,1.938C37.724,28.722,37.957,28.722,38.19,28.647z"/>
<path fill="#FFFFFF" d="M40.127,27.638c-0.078-0.465-0.156-0.93-0.156-1.396c0.156,0,0.233,0,0.388-0.076
	c0.078,0.463,0.155,0.929,0.155,1.395c0.077,0.541,0.465,0.773,1.006,0.695c0.543-0.078,0.931-0.387,0.854-0.93l-0.155-1.395
	c0.155,0,0.231,0,0.388-0.076c0.077,0.463,0.077,0.928,0.153,1.394c0.078,0.696-0.387,1.161-1.161,1.239
	C40.824,28.647,40.281,28.335,40.127,27.638"/>
<path fill="none" stroke="#FFFFFF" stroke-width="0.0439" stroke-miterlimit="10" d="M40.127,27.638
	c-0.078-0.465-0.156-0.93-0.156-1.396c0.156,0,0.233,0,0.388-0.076c0.078,0.463,0.155,0.929,0.155,1.395
	c0.077,0.541,0.465,0.773,1.006,0.695c0.543-0.078,0.931-0.387,0.854-0.93l-0.155-1.395c0.155,0,0.231,0,0.388-0.076
	c0.077,0.463,0.077,0.928,0.153,1.394c0.078,0.696-0.387,1.161-1.161,1.239C40.824,28.647,40.281,28.335,40.127,27.638z"/>
<path fill="#FFFFFF" d="M43.147,27.948c0.079-0.076,0.155-0.155,0.155-0.231c0.31,0.231,0.696,0.31,1.084,0.231
	c0.388-0.076,0.698-0.231,0.62-0.465l0,0c0-0.231-0.155-0.311-0.853-0.388s-1.086-0.155-1.086-0.621l0,0
	c-0.076-0.386,0.389-0.696,0.931-0.774c0.466-0.076,0.775,0,1.163,0.158c-0.077,0.076-0.155,0.154-0.155,0.23
	c-0.311-0.155-0.62-0.23-0.93-0.155c-0.389,0.078-0.62,0.233-0.62,0.466l0,0c0,0.23,0.23,0.31,0.93,0.385
	c0.698,0.078,1.007,0.234,1.084,0.623l0,0c0.077,0.386-0.386,0.771-1.006,0.771C43.999,28.257,43.536,28.179,43.147,27.948"/>
<path fill="none" stroke="#FFFFFF" stroke-width="0.0439" stroke-miterlimit="10" d="M43.147,27.948
	c0.079-0.076,0.155-0.155,0.155-0.231c0.31,0.231,0.696,0.31,1.084,0.231c0.388-0.076,0.698-0.231,0.62-0.465l0,0
	c0-0.231-0.155-0.311-0.853-0.388s-1.086-0.155-1.086-0.621l0,0c-0.076-0.386,0.389-0.696,0.931-0.774
	c0.466-0.076,0.775,0,1.163,0.158c-0.077,0.076-0.155,0.154-0.155,0.23c-0.311-0.155-0.62-0.23-0.93-0.155
	c-0.389,0.078-0.62,0.233-0.62,0.466l0,0c0,0.23,0.23,0.31,0.93,0.385c0.698,0.078,1.007,0.234,1.084,0.623l0,0
	c0.077,0.386-0.386,0.771-1.006,0.771C43.999,28.257,43.536,28.179,43.147,27.948z"/>
<path fill="#FFFFFF" d="M46.478,25.7c-0.385,0-0.695,0.078-1.006,0.078c0-0.078,0-0.154,0-0.232c0.854-0.077,1.626-0.155,2.48-0.23
	c0,0.076,0,0.154,0,0.23c-0.311,0-0.698,0.078-1.009,0.078c0.077,0.697,0.153,1.472,0.231,2.168h-0.386
	C46.634,27.173,46.556,26.475,46.478,25.7"/>
<path fill="none" stroke="#FFFFFF" stroke-width="0.0439" stroke-miterlimit="10" d="M46.478,25.7c-0.385,0-0.695,0.078-1.006,0.078
	c0-0.078,0-0.154,0-0.232c0.854-0.077,1.626-0.155,2.48-0.23c0,0.076,0,0.154,0,0.23c-0.311,0-0.698,0.078-1.009,0.078
	c0.077,0.697,0.153,1.472,0.231,2.168h-0.386C46.634,27.173,46.556,26.475,46.478,25.7z"/>
<path fill="#FFFFFF" d="M48.338,25.315c0.465,0,0.93-0.08,1.315-0.08c0.389,0,0.698,0.08,0.931,0.155
	c0.157,0.078,0.232,0.31,0.31,0.466l0,0c0,0.387-0.31,0.696-0.772,0.773c0.31,0.311,0.695,0.621,1.006,0.932
	c-0.155,0-0.311,0-0.465,0c-0.311-0.311-0.62-0.621-0.93-0.932c-0.31,0-0.62,0.078-0.851,0.078c0,0.311,0.076,0.619,0.076,0.93
	c-0.155,0-0.233,0-0.311,0C48.415,26.94,48.338,26.167,48.338,25.315 M49.732,26.475c0.465,0,0.774-0.23,0.774-0.541l0,0
	c0-0.31-0.311-0.465-0.854-0.465c-0.31,0-0.619,0.077-0.929,0.077c0,0.312,0.078,0.698,0.078,1.008
	C49.034,26.475,49.422,26.475,49.732,26.475"/>
<path fill="none" stroke="#FFFFFF" stroke-width="0.0439" stroke-miterlimit="10" d="M48.338,25.315c0.465,0,0.93-0.08,1.315-0.08
	c0.389,0,0.698,0.08,0.931,0.155c0.157,0.078,0.232,0.31,0.31,0.466l0,0c0,0.387-0.31,0.696-0.772,0.773
	c0.31,0.311,0.695,0.621,1.006,0.932c-0.155,0-0.311,0-0.465,0c-0.311-0.311-0.62-0.621-0.93-0.932c-0.31,0-0.62,0.078-0.851,0.078
	c0,0.311,0.076,0.619,0.076,0.93c-0.155,0-0.233,0-0.311,0C48.415,26.94,48.338,26.167,48.338,25.315z M49.732,26.475
	c0.465,0,0.774-0.23,0.774-0.541l0,0c0-0.31-0.311-0.465-0.854-0.465c-0.31,0-0.619,0.077-0.929,0.077
	c0,0.312,0.078,0.698,0.078,1.008C49.034,26.475,49.422,26.475,49.732,26.475z"/>
<path fill="#FFFFFF" d="M51.281,25.081c0.155,0,0.232,0,0.389,0c0.077,0.854,0.077,1.628,0.152,2.48c-0.076,0-0.23,0-0.31,0
	C51.437,26.708,51.36,25.934,51.281,25.081"/>
<path fill="none" stroke="#FFFFFF" stroke-width="0.0439" stroke-miterlimit="10" d="M51.281,25.081c0.155,0,0.232,0,0.389,0
	c0.077,0.854,0.077,1.628,0.152,2.48c-0.076,0-0.23,0-0.31,0C51.437,26.708,51.36,25.934,51.281,25.081z"/>
<path fill="#FFFFFF" d="M52.133,27.096c0.078-0.078,0.156-0.156,0.233-0.156c0.232,0.233,0.387,0.313,0.695,0.313
	c0.311,0,0.62-0.232,0.543-0.621c0-0.542-0.077-1.084-0.077-1.626c0.153,0,0.232,0,0.388,0c0,0.542,0.077,1.084,0.077,1.626
	c0,0.311-0.077,0.543-0.231,0.697c-0.155,0.154-0.388,0.232-0.698,0.232C52.676,27.483,52.366,27.329,52.133,27.096"/>
<path fill="none" stroke="#FFFFFF" stroke-width="0.0439" stroke-miterlimit="10" d="M52.133,27.096
	c0.078-0.078,0.156-0.156,0.233-0.156c0.232,0.233,0.387,0.313,0.695,0.313c0.311,0,0.62-0.232,0.543-0.621
	c0-0.542-0.077-1.084-0.077-1.626c0.153,0,0.232,0,0.388,0c0,0.542,0.077,1.084,0.077,1.626c0,0.311-0.077,0.543-0.231,0.697
	c-0.155,0.154-0.388,0.232-0.698,0.232C52.676,27.483,52.366,27.329,52.133,27.096z"/>
<path fill="#FFFFFF" d="M55.541,24.849c0.078,0,0.233,0,0.311,0c0.543,0.774,1.006,1.625,1.474,2.402c-0.156,0-0.233,0-0.389,0
	c-0.154-0.233-0.23-0.466-0.388-0.621c-0.541,0-1.084,0.078-1.704,0.078c-0.076,0.231-0.233,0.465-0.308,0.698
	c-0.156,0-0.235,0-0.389,0C54.689,26.553,55.156,25.7,55.541,24.849 M56.472,26.399c-0.233-0.387-0.465-0.853-0.775-1.24
	c-0.232,0.466-0.465,0.854-0.697,1.316C55.541,26.399,56.007,26.399,56.472,26.399"/>
<path fill="none" stroke="#FFFFFF" stroke-width="0.0439" stroke-miterlimit="10" d="M55.541,24.849c0.078,0,0.233,0,0.311,0
	c0.543,0.774,1.006,1.625,1.474,2.402c-0.156,0-0.233,0-0.389,0c-0.154-0.233-0.23-0.466-0.388-0.621
	c-0.541,0-1.084,0.078-1.704,0.078c-0.076,0.231-0.233,0.465-0.308,0.698c-0.156,0-0.235,0-0.389,0
	C54.689,26.553,55.156,25.7,55.541,24.849z M56.472,26.399c-0.233-0.387-0.465-0.853-0.775-1.24
	c-0.232,0.466-0.465,0.854-0.697,1.316C55.541,26.399,56.007,26.399,56.472,26.399z"/>
<path fill="#FFFFFF" d="M58.795,24.772c0.155,0,0.231,0,0.388,0c0.387,0.463,0.773,0.853,1.161,1.316
	c0.388-0.465,0.774-0.93,1.084-1.395c0.155,0,0.233,0,0.386,0c0,0.852,0,1.627,0,2.479h-0.31c0-0.698,0-1.315,0-2.015
	c-0.387,0.466-0.773,0.854-1.083,1.316l0,0c-0.388-0.463-0.776-0.851-1.163-1.316c0,0.699,0,1.316,0,2.015h-0.311
	C58.795,26.399,58.795,25.625,58.795,24.772"/>
<path fill="none" stroke="#FFFFFF" stroke-width="0.0439" stroke-miterlimit="10" d="M58.795,24.772c0.155,0,0.231,0,0.388,0
	c0.387,0.463,0.773,0.853,1.161,1.316c0.388-0.465,0.774-0.93,1.084-1.395c0.155,0,0.233,0,0.386,0c0,0.852,0,1.627,0,2.479h-0.31
	c0-0.698,0-1.315,0-2.015c-0.387,0.466-0.773,0.854-1.083,1.316l0,0c-0.388-0.463-0.776-0.851-1.163-1.316c0,0.699,0,1.316,0,2.015
	h-0.311C58.795,26.399,58.795,25.625,58.795,24.772z"/>
<path fill="#FFFFFF" d="M62.359,24.696c0.774,0,1.473,0,2.247,0c0,0.076,0,0.154,0,0.23c-0.622,0-1.24,0-1.938,0
	c0,0.311,0,0.543,0,0.854c0.543,0,1.163,0,1.704,0c0,0.078,0,0.154,0,0.232c-0.542,0-1.161,0-1.704,0c0,0.311,0,0.542,0,0.852
	c0.62,0,1.241,0,1.938,0c0,0.076,0,0.154,0,0.232c-0.774,0-1.473,0-2.247,0C62.359,26.399,62.359,25.546,62.359,24.696"/>
<path fill="none" stroke="#FFFFFF" stroke-width="0.0439" stroke-miterlimit="10" d="M62.359,24.696c0.774,0,1.473,0,2.247,0
	c0,0.076,0,0.154,0,0.23c-0.622,0-1.24,0-1.938,0c0,0.311,0,0.543,0,0.854c0.543,0,1.163,0,1.704,0c0,0.078,0,0.154,0,0.232
	c-0.542,0-1.161,0-1.704,0c0,0.311,0,0.542,0,0.852c0.62,0,1.241,0,1.938,0c0,0.076,0,0.154,0,0.232c-0.774,0-1.473,0-2.247,0
	C62.359,26.399,62.359,25.546,62.359,24.696z"/>
<path fill="#FFFFFF" d="M64.916,26.864c0.077-0.078,0.154-0.155,0.232-0.233c0.311,0.233,0.62,0.388,1.083,0.388
	c0.389,0,0.698-0.154,0.698-0.388l0,0c0-0.231-0.155-0.388-0.774-0.463c-0.695-0.155-1.006-0.31-1.006-0.698l0,0
	c0-0.389,0.463-0.697,1.006-0.62c0.466,0,0.774,0.155,1.085,0.31c-0.078,0.078-0.155,0.156-0.231,0.232
	c-0.31-0.232-0.543-0.311-0.93-0.311c-0.389,0-0.698,0.156-0.698,0.389l0,0c0,0.23,0.155,0.389,0.851,0.465
	c0.698,0.155,1.009,0.311,1.009,0.696l0,0c0,0.388-0.466,0.698-1.085,0.698C65.69,27.251,65.302,27.096,64.916,26.864"/>
<path fill="none" stroke="#FFFFFF" stroke-width="0.0439" stroke-miterlimit="10" d="M64.916,26.864
	c0.077-0.078,0.154-0.155,0.232-0.233c0.311,0.233,0.62,0.388,1.083,0.388c0.389,0,0.698-0.154,0.698-0.388l0,0
	c0-0.231-0.155-0.388-0.774-0.463c-0.695-0.155-1.006-0.31-1.006-0.698l0,0c0-0.389,0.463-0.697,1.006-0.62
	c0.466,0,0.774,0.155,1.085,0.31c-0.078,0.078-0.155,0.156-0.231,0.232c-0.31-0.232-0.543-0.311-0.93-0.311
	c-0.389,0-0.698,0.156-0.698,0.389l0,0c0,0.23,0.155,0.389,0.851,0.465c0.698,0.155,1.009,0.311,1.009,0.696l0,0
	c0,0.388-0.466,0.698-1.085,0.698C65.69,27.251,65.302,27.096,64.916,26.864z"/>
<path fill="#FFFFFF" d="M68.789,24.849c0.078,0,0.23,0,0.31,0c0.465,0.851,0.852,1.704,1.318,2.558c-0.157,0-0.233,0-0.389,0
	c-0.078-0.233-0.23-0.467-0.31-0.698c-0.542,0-1.084-0.078-1.704-0.078c-0.155,0.233-0.232,0.466-0.386,0.621
	c-0.157,0-0.233,0-0.388,0C67.859,26.475,68.324,25.625,68.789,24.849 M69.64,26.475c-0.23-0.463-0.463-0.851-0.62-1.316
	c-0.23,0.388-0.542,0.854-0.772,1.24C68.71,26.399,69.176,26.399,69.64,26.475"/>
<path fill="none" stroke="#FFFFFF" stroke-width="0.0439" stroke-miterlimit="10" d="M68.789,24.849c0.078,0,0.23,0,0.31,0
	c0.465,0.851,0.852,1.704,1.318,2.558c-0.157,0-0.233,0-0.389,0c-0.078-0.233-0.23-0.467-0.31-0.698
	c-0.542,0-1.084-0.078-1.704-0.078c-0.155,0.233-0.232,0.466-0.386,0.621c-0.157,0-0.233,0-0.388,0
	C67.859,26.475,68.324,25.625,68.789,24.849z M69.64,26.475c-0.23-0.463-0.463-0.851-0.62-1.316c-0.23,0.388-0.542,0.854-0.772,1.24
	C68.71,26.399,69.176,26.399,69.64,26.475z"/>
<path fill="#FFFFFF" d="M72.043,25.004c0.076,0,0.23,0,0.308,0c0.621,0.695,1.241,1.395,1.86,2.092l0.152-1.938
	c0.078,0,0.233,0,0.311,0c-0.077,0.854-0.077,1.627-0.153,2.479c-0.079,0-0.157,0-0.31,0c-0.62-0.698-1.239-1.471-1.86-2.169
	c-0.077,0.698-0.077,1.316-0.077,2.014c-0.079,0-0.23,0-0.31,0C71.965,26.63,71.965,25.778,72.043,25.004"/>
<path fill="none" stroke="#FFFFFF" stroke-width="0.0439" stroke-miterlimit="10" d="M72.043,25.004c0.076,0,0.23,0,0.308,0
	c0.621,0.695,1.241,1.395,1.86,2.092l0.152-1.938c0.078,0,0.233,0,0.311,0c-0.077,0.854-0.077,1.627-0.153,2.479
	c-0.079,0-0.157,0-0.31,0c-0.62-0.698-1.239-1.471-1.86-2.169c-0.077,0.698-0.077,1.316-0.077,2.014c-0.079,0-0.23,0-0.31,0
	C71.965,26.63,71.965,25.778,72.043,25.004z"/>
<path fill="#FFFFFF" d="M75.063,26.399L75.063,26.399c0.079-0.697,0.775-1.24,1.704-1.162c0.93,0.078,1.549,0.697,1.474,1.395l0,0
	c-0.078,0.697-0.776,1.24-1.706,1.162C75.604,27.716,74.985,27.096,75.063,26.399 M77.852,26.63L77.852,26.63
	c0.079-0.542-0.388-1.084-1.161-1.161c-0.697-0.078-1.238,0.389-1.316,0.93l0,0c-0.078,0.541,0.465,1.084,1.161,1.084
	C77.232,27.638,77.773,27.251,77.852,26.63"/>
<path fill="none" stroke="#FFFFFF" stroke-width="0.0439" stroke-miterlimit="10" d="M75.063,26.399L75.063,26.399
	c0.079-0.697,0.775-1.24,1.704-1.162c0.93,0.078,1.549,0.697,1.474,1.395l0,0c-0.078,0.697-0.776,1.24-1.706,1.162
	C75.604,27.716,74.985,27.096,75.063,26.399z M77.852,26.63L77.852,26.63c0.079-0.542-0.388-1.084-1.161-1.161
	c-0.697-0.078-1.238,0.389-1.316,0.93l0,0c-0.078,0.541,0.465,1.084,1.161,1.084C77.232,27.638,77.773,27.251,77.852,26.63z"/>
<path fill="#FFFFFF" d="M78.393,25.469c0.157,0,0.233,0,0.388,0c0.311,0.773,0.62,1.471,0.93,2.247
	c0.465-0.698,0.853-1.317,1.317-2.017c0.155,0,0.231,0,0.389,0.078c-0.545,0.775-1.086,1.551-1.627,2.324c-0.079,0-0.233,0-0.311,0
	C79.091,27.173,78.781,26.321,78.393,25.469"/>
<path fill="none" stroke="#FFFFFF" stroke-width="0.0439" stroke-miterlimit="10" d="M78.393,25.469c0.157,0,0.233,0,0.388,0
	c0.311,0.773,0.62,1.471,0.93,2.247c0.465-0.698,0.853-1.317,1.317-2.017c0.155,0,0.231,0,0.389,0.078
	c-0.545,0.775-1.086,1.551-1.627,2.324c-0.079,0-0.233,0-0.311,0C79.091,27.173,78.781,26.321,78.393,25.469z"/>
<path fill="#FFFFFF" d="M81.726,25.778c0.153,0,0.231,0,0.387,0.08c-0.076,0.851-0.154,1.625-0.31,2.478
	c-0.155,0-0.233,0-0.31-0.078L81.726,25.778z"/>
<path fill="none" stroke="#FFFFFF" stroke-width="0.0439" stroke-miterlimit="10" d="M81.726,25.778c0.153,0,0.231,0,0.387,0.08
	c-0.076,0.851-0.154,1.625-0.31,2.478c-0.155,0-0.233,0-0.31-0.078L81.726,25.778z"/>
<path fill="#FFFFFF" d="M83.352,28.104c0.077-0.078,0.155-0.156,0.233-0.156c0.31,0.311,0.62,0.389,1.006,0.465
	c0.386,0.078,0.696-0.076,0.774-0.309l0,0c0-0.232-0.078-0.388-0.774-0.543c-0.696-0.232-1.006-0.465-0.93-0.853l0,0
	c0.076-0.388,0.543-0.62,1.084-0.542c0.465,0.076,0.774,0.232,1.084,0.463c-0.077,0.078-0.155,0.154-0.233,0.154
	c-0.231-0.23-0.541-0.31-0.851-0.385c-0.389-0.078-0.698,0.075-0.698,0.31l0,0c0,0.231,0.078,0.388,0.775,0.62
	c0.696,0.232,0.93,0.464,0.93,0.851l0,0c-0.078,0.39-0.543,0.621-1.163,0.543C84.126,28.647,83.738,28.413,83.352,28.104"/>
<path fill="none" stroke="#FFFFFF" stroke-width="0.0439" stroke-miterlimit="10" d="M83.352,28.104
	c0.077-0.078,0.155-0.156,0.233-0.156c0.31,0.311,0.62,0.389,1.006,0.465c0.386,0.078,0.696-0.076,0.774-0.309l0,0
	c0-0.232-0.078-0.388-0.774-0.543c-0.696-0.232-1.006-0.465-0.93-0.853l0,0c0.076-0.388,0.543-0.62,1.084-0.542
	c0.465,0.076,0.774,0.232,1.084,0.463c-0.077,0.078-0.155,0.154-0.233,0.154c-0.231-0.23-0.541-0.31-0.851-0.385
	c-0.389-0.078-0.698,0.075-0.698,0.31l0,0c0,0.231,0.078,0.388,0.775,0.62c0.696,0.232,0.93,0.464,0.93,0.851l0,0
	c-0.078,0.39-0.543,0.621-1.163,0.543C84.126,28.647,83.738,28.413,83.352,28.104z"/>
<path fill="#FFFFFF" d="M87.535,26.553c0.077,0,0.23,0,0.31,0.077c0.388,0.853,0.698,1.782,1.008,2.635
	c-0.156,0-0.232-0.077-0.388-0.077c-0.077-0.232-0.155-0.466-0.232-0.697c-0.543-0.078-1.086-0.154-1.706-0.232
	c-0.152,0.232-0.31,0.389-0.463,0.62c-0.079,0-0.232,0-0.388-0.077C86.374,28.026,86.915,27.251,87.535,26.553 M88.154,28.257
	c-0.154-0.465-0.31-0.929-0.542-1.317c-0.31,0.389-0.619,0.776-0.853,1.164C87.225,28.104,87.689,28.179,88.154,28.257"/>
<path fill="none" stroke="#FFFFFF" stroke-width="0.0439" stroke-miterlimit="10" d="M87.535,26.553c0.077,0,0.23,0,0.31,0.077
	c0.388,0.853,0.698,1.782,1.008,2.635c-0.156,0-0.232-0.077-0.388-0.077c-0.077-0.232-0.155-0.466-0.232-0.697
	c-0.543-0.078-1.086-0.154-1.706-0.232c-0.152,0.232-0.31,0.389-0.463,0.62c-0.079,0-0.232,0-0.388-0.077
	C86.374,28.026,86.915,27.251,87.535,26.553z M88.154,28.257c-0.154-0.465-0.31-0.929-0.542-1.317
	c-0.31,0.389-0.619,0.776-0.853,1.164C87.225,28.104,87.689,28.179,88.154,28.257z"/>
<path fill="#FFFFFF" d="M89.627,26.864c0.386,0.076,0.695,0.076,1.084,0.154c1.007,0.155,1.549,0.774,1.394,1.473l0,0
	c-0.154,0.697-0.853,1.086-1.858,0.931c-0.388-0.078-0.698-0.078-1.084-0.155C89.394,28.491,89.472,27.716,89.627,26.864
	 M90.323,29.188c0.776,0.154,1.317-0.232,1.396-0.775l0,0c0.077-0.541-0.31-1.084-1.086-1.16c-0.231-0.078-0.463-0.078-0.696-0.155
	c-0.077,0.62-0.232,1.315-0.31,1.937C89.86,29.112,90.091,29.188,90.323,29.188"/>
<path fill="none" stroke="#FFFFFF" stroke-width="0.0439" stroke-miterlimit="10" d="M89.627,26.864
	c0.386,0.076,0.695,0.076,1.084,0.154c1.007,0.155,1.549,0.774,1.394,1.473l0,0c-0.154,0.697-0.853,1.086-1.858,0.931
	c-0.388-0.078-0.698-0.078-1.084-0.155C89.394,28.491,89.472,27.716,89.627,26.864z M90.323,29.188
	c0.776,0.154,1.317-0.232,1.396-0.775l0,0c0.077-0.541-0.31-1.084-1.086-1.16c-0.231-0.078-0.463-0.078-0.696-0.155
	c-0.077,0.62-0.232,1.315-0.31,1.937C89.86,29.112,90.091,29.188,90.323,29.188z"/>
</svg>
