<?xml version="1.0" encoding="utf-8"?>
<!-- Generator: Adobe Illustrator 16.0.3, SVG Export Plug-In . SVG Version: 6.00 Build 0)  -->
<!DOCTYPE svg PUBLIC "-//W3C//DTD SVG 1.1//EN" "http://www.w3.org/Graphics/SVG/1.1/DTD/svg11.dtd">
<svg version="1.1" id="Layer_1" xmlns="http://www.w3.org/2000/svg" xmlns:xlink="http://www.w3.org/1999/xlink" x="0px" y="0px"
	 width="132.25px" height="53.167px" viewBox="0 0 132.25 53.167" enable-background="new 0 0 132.25 53.167" xml:space="preserve">
<g>
	<path fill="#58585B" d="M113.479,22.94c-0.188,0.499-0.386,0.993-0.559,1.497c-0.074,0.212-0.184,0.274-0.406,0.274
		c-6.601-0.007-13.203-0.007-19.804,0c-0.226,0-0.326-0.061-0.394-0.277c-0.156-0.5-0.346-0.99-0.599-1.476
		c0,0.46-0.015,0.921,0.007,1.381c0.014,0.272-0.041,0.376-0.353,0.375c-3.485-0.014-6.978-0.013-10.462-0.002
		c-0.288,0.002-0.34-0.09-0.334-0.352c0.015-0.979,0.017-1.958-0.001-2.938c-0.005-0.278,0.077-0.341,0.35-0.341
		c6.548,0.008,13.093,0.005,19.638,0.007c0.33,0,0.723-0.096,0.971,0.049c0.254,0.149,0.265,0.578,0.381,0.886
		c0.254,0.678,0.498,1.359,0.749,2.046c0.136-0.062,0.131-0.2,0.168-0.303c0.296-0.803,0.589-1.608,0.87-2.417
		c0.068-0.196,0.165-0.268,0.379-0.267c6.777,0.006,13.554,0.006,20.331,0c0.241,0,0.289,0.083,0.287,0.302
		c-0.013,1.012-0.015,2.024,0.001,3.037c0.003,0.237-0.07,0.289-0.297,0.288c-3.51-0.006-7.021-0.008-10.529,0.003
		c-0.277,0.002-0.326-0.096-0.318-0.339c0.019-0.471,0.006-0.944,0.006-1.416C113.532,22.953,113.505,22.946,113.479,22.94z"/>
	<path fill="#58585B" d="M49.784,42.188c6.689,0,13.379,0,20.067,0c0.414,0,0.412,0,0.321,0.417
		c-0.19,0.893-0.423,1.771-0.815,2.604c-0.203,0.426-0.461,0.612-0.983,0.612c-12.851-0.021-25.701-0.016-38.551-0.016
		c-0.447,0-0.447,0-0.447-0.438c0-0.945,0.01-1.893-0.007-2.838c-0.004-0.275,0.073-0.348,0.346-0.348
		c5.051,0.009,10.1,0.007,15.151,0.007C46.505,42.188,48.144,42.188,49.784,42.188z"/>
	<path fill="#58585B" d="M49.81,10.647c-6.667,0-13.335,0-20.003-0.001c-0.487,0-0.429,0.065-0.431-0.446
		c-0.002-0.924,0.012-1.849-0.008-2.772c-0.005-0.301,0.072-0.388,0.38-0.387c3.499,0.012,6.999,0.008,10.497,0.008
		c9.451,0,18.902,0.001,28.353-0.008c0.295,0,0.473,0.095,0.61,0.336c0.548,0.96,0.786,2.021,1.011,3.086
		c0.026,0.119-0.003,0.192-0.144,0.184c-0.087-0.006-0.175,0-0.265,0C63.145,10.647,56.477,10.647,49.81,10.647z"/>
	<path fill="#58585B" d="M66.02,3.63c-0.216,0-0.325,0-0.435,0c-11.914,0-23.828,0-35.742-0.001c-0.514,0-0.466,0.077-0.467-0.482
		c-0.002-0.935,0.011-1.87-0.007-2.805c-0.005-0.283,0.083-0.34,0.35-0.34c5.918,0.008,11.837,0.006,17.755,0.006
		c3.146,0,6.292,0.025,9.439-0.008c2.425-0.026,4.633,0.659,6.703,1.874c0.731,0.429,1.422,0.917,2.072,1.462
		C65.778,3.413,65.863,3.492,66.02,3.63z"/>
	<path fill="#58585B" d="M65.991,49.207c-0.282,0.303-0.554,0.504-0.823,0.707c-1.807,1.358-3.786,2.346-6.031,2.746
		c-0.628,0.11-1.263,0.164-1.902,0.164c-9.173,0-18.348,0-27.521,0.006c-0.273,0-0.349-0.067-0.345-0.346
		c0.018-0.967,0.019-1.936,0-2.902c-0.005-0.304,0.081-0.383,0.384-0.383c11.208,0.008,22.417,0.008,33.626,0.008
		C64.225,49.207,65.071,49.207,65.991,49.207z"/>
	<path fill="#58585B" d="M52.576,21.089c5.127,0,10.254,0,15.381,0c0.4,0,0.406,0.003,0.204,0.36
		c-0.722,1.265-1.756,2.245-2.851,3.174c-0.117,0.101-0.245,0.083-0.374,0.083c-2.002,0.001-4.005,0.001-6.007,0.001
		c-7.261,0-14.522-0.002-21.784,0.009c-0.326,0-0.398-0.091-0.392-0.403c0.021-0.945,0.022-1.892,0-2.837
		c-0.008-0.328,0.1-0.393,0.408-0.393C42.3,21.091,47.438,21.089,52.576,21.089z"/>
	<path fill="#58585B" d="M52.562,31.748c-5.117,0-10.232,0-15.348,0c-0.453,0-0.453,0-0.453-0.467c0-0.924,0.012-1.849-0.006-2.773
		c-0.005-0.289,0.057-0.391,0.372-0.387c1.563,0.02,3.125,0.008,4.687,0.008c7.679,0,15.358,0.002,23.038-0.004
		c0.245,0,0.435,0.061,0.623,0.224c1.021,0.896,1.994,1.829,2.677,3.022c0.214,0.373,0.209,0.377-0.211,0.377
		C62.815,31.748,57.688,31.748,52.562,31.748z"/>
	<path fill="#58585B" d="M12.878,0.008c4.158,0,8.316,0.005,12.474-0.008c0.327-0.002,0.396,0.089,0.389,0.399
		c-0.022,0.945-0.022,1.893,0,2.838c0.007,0.317-0.074,0.399-0.396,0.399C17.195,3.627,9.044,3.63,0.894,3.627
		c-0.271,0-0.62,0.117-0.797-0.049C-0.082,3.41,0.044,3.058,0.041,2.787C0.031,1.974,0.05,1.159,0.03,0.345
		C0.023,0.071,0.096,0.001,0.372,0.002C4.542,0.013,8.709,0.008,12.878,0.008z"/>
	<path fill="#58585B" d="M12.845,10.647c-4.147,0-8.295-0.004-12.442,0.008c-0.313,0.001-0.377-0.092-0.372-0.382
		c0.018-0.968,0.018-1.938,0-2.905C0.027,7.09,0.108,7.025,0.379,7.025C5.044,7.034,9.71,7.031,14.375,7.031
		c3.652,0,7.305,0.006,10.958-0.009c0.347-0.001,0.417,0.099,0.41,0.423c-0.023,0.945-0.024,1.892,0,2.837
		c0.007,0.318-0.1,0.371-0.387,0.37C21.185,10.645,17.015,10.647,12.845,10.647z"/>
	<path fill="#58585B" d="M13.11,42.188c4.148,0,8.296,0.002,12.444-0.007c0.286-0.001,0.395,0.052,0.388,0.369
		c-0.023,0.968-0.016,1.937-0.002,2.904c0.004,0.266-0.054,0.354-0.339,0.354C17.249,45.798,8.898,45.8,0.547,45.806
		c-0.239,0.002-0.321-0.051-0.316-0.307c0.016-1,0.018-2-0.001-3.002c-0.005-0.274,0.093-0.316,0.337-0.316
		C4.749,42.188,8.929,42.188,13.11,42.188z"/>
	<path fill="#58585B" d="M13.043,52.828c-4.146,0-8.293-0.004-12.44,0.008c-0.308,0-0.377-0.086-0.371-0.381
		c0.018-0.955,0.018-1.914,0-2.871c-0.006-0.291,0.059-0.387,0.372-0.385c3.08,0.014,6.16,0.008,9.24,0.008
		c5.236,0,10.472,0.004,15.707-0.008c0.326,0,0.4,0.09,0.393,0.403c-0.021,0.955-0.019,1.913,0,2.869
		c0.006,0.288-0.065,0.364-0.359,0.362C21.402,52.824,17.222,52.828,13.043,52.828z"/>
	<path fill="#58585B" d="M85.475,10.647c-3.963,0-7.922-0.006-11.884,0.009c-0.346,0.001-0.413-0.097-0.405-0.418
		c0.021-0.957,0.016-1.915,0.004-2.872c-0.004-0.231,0.035-0.324,0.299-0.324C81.093,7.05,88.695,7.05,96.299,7.043
		c0.221,0,0.303,0.084,0.367,0.279c0.332,1.012,0.669,2.021,1.023,3.027c0.095,0.269,0.02,0.302-0.232,0.302
		C93.462,10.646,89.468,10.647,85.475,10.647z"/>
	<path fill="#58585B" d="M107.398,10.632c0.393-1.165,0.771-2.287,1.146-3.411c0.041-0.119,0.103-0.188,0.235-0.175
		c0.076,0.007,0.152,0.001,0.229,0.001c7.479,0,14.962-0.001,22.438,0c0.508,0,0.431-0.054,0.433,0.443
		c0.003,0.946-0.006,1.892,0.007,2.839c0.002,0.227-0.029,0.323-0.297,0.322c-7.984-0.008-15.972-0.007-23.958-0.008
		C107.568,10.646,107.504,10.64,107.398,10.632z"/>
	<path fill="#58585B" d="M84.264,3.63c-3.563,0-7.127-0.003-10.688,0.005c-0.285,0-0.397-0.048-0.39-0.37
		c0.022-0.989,0.016-1.979,0.002-2.968c-0.002-0.229,0.058-0.295,0.291-0.294c6.765,0.007,13.526,0.006,20.289,0
		c0.213,0,0.299,0.067,0.369,0.266c0.354,1.004,0.727,2.002,1.092,3.002c0.131,0.355,0.129,0.357-0.244,0.357
		C91.41,3.63,87.836,3.63,84.264,3.63z"/>
	<path fill="#58585B" d="M120.926,3.63c-3.541,0-7.082,0-10.623,0c-0.381,0-0.383-0.001-0.257-0.346
		c0.368-1.011,0.742-2.019,1.103-3.032c0.063-0.184,0.149-0.249,0.348-0.249c6.697,0.006,13.396,0.007,20.093-0.001
		c0.259,0,0.306,0.08,0.302,0.315c-0.013,0.979-0.018,1.958,0.002,2.936c0.006,0.295-0.063,0.383-0.373,0.382
		C127.986,3.625,124.455,3.63,120.926,3.63z"/>
	<path fill="#58585B" d="M114.749,17.688c-3.179,0-6.356-0.004-9.535,0.005c-0.293,0.001-0.351-0.045-0.239-0.334
		c0.385-1.005,0.748-2.017,1.106-3.031c0.069-0.193,0.157-0.268,0.373-0.267c5.981,0.007,11.966,0.007,17.948,0
		c0.227,0,0.299,0.052,0.297,0.289c-0.016,1-0.018,2.002,0,3.002c0.006,0.278-0.078,0.342-0.35,0.341
		C121.15,17.686,117.949,17.688,114.749,17.688z"/>
	<path fill="#58585B" d="M89.813,14.066c2.961,0,5.918,0.003,8.879-0.005c0.233,0,0.345,0.065,0.42,0.293
		c0.354,1.016,0.724,2.027,1.101,3.035c0.088,0.233,0.062,0.304-0.202,0.303c-6.381-0.005-12.761-0.005-19.143,0.001
		c-0.24,0-0.288-0.082-0.285-0.301c0.01-1,0.012-2.002-0.002-3.003c-0.004-0.256,0.063-0.331,0.322-0.329
		C83.872,14.07,86.841,14.066,89.813,14.066z"/>
	<path fill="#58585B" d="M122.848,42.188c2.957,0,5.916,0.002,8.875-0.007c0.271-0.001,0.377,0.037,0.369,0.35
		c-0.023,1.002-0.016,2.002-0.004,3.002c0.004,0.223-0.064,0.275-0.277,0.274c-5.98-0.005-11.965-0.007-17.947,0.003
		c-0.254,0-0.311-0.084-0.309-0.322c0.012-1.001,0.014-2.001-0.002-3.002c-0.002-0.258,0.084-0.306,0.321-0.305
		C116.865,42.189,119.855,42.188,122.848,42.188z"/>
	<path fill="#58585B" d="M122.813,52.828c-2.971,0-5.938-0.004-8.908,0.006c-0.268,0.002-0.355-0.056-0.352-0.338
		c0.021-0.979,0.021-1.959,0-2.938c-0.007-0.303,0.094-0.357,0.373-0.357c5.94,0.008,11.879,0.008,17.82,0
		c0.273-0.002,0.346,0.072,0.343,0.346c-0.017,0.988-0.017,1.979,0,2.972c0.007,0.271-0.089,0.315-0.334,0.313
		C128.775,52.824,125.795,52.828,122.813,52.828z"/>
	<path fill="#58585B" d="M82.532,45.804c-2.927,0-5.854-0.006-8.78,0.008c-0.286,0.001-0.374-0.063-0.368-0.359
		c0.021-0.969,0.019-1.938,0.001-2.904c-0.005-0.28,0.055-0.369,0.356-0.367c2.256,0.014,4.512,0.009,6.768,0.009
		c3.599,0,7.196,0,10.796,0c0.414,0,0.414,0,0.414,0.431c0,0.936-0.012,1.871,0.008,2.807c0.006,0.296-0.066,0.391-0.379,0.39
		C88.409,45.798,85.471,45.804,82.532,45.804z"/>
	<path fill="#58585B" d="M82.568,52.828c-2.938,0-5.875-0.006-8.813,0.008c-0.313,0.002-0.377-0.092-0.369-0.383
		c0.016-0.957,0.018-1.914-0.003-2.871c-0.005-0.295,0.067-0.383,0.378-0.383c5.674,0.012,11.352,0.008,17.025,0.01
		c0.296,0,0.676-0.125,0.859,0.055c0.205,0.193,0.063,0.585,0.066,0.888c0.012,0.792-0.007,1.585,0.012,2.376
		c0.004,0.25-0.072,0.311-0.314,0.309C88.464,52.824,85.516,52.828,82.568,52.828z"/>
	<path fill="#58585B" d="M102.723,28.128c2.858,0,5.719,0.006,8.577-0.006c0.32-0.002,0.33,0.086,0.234,0.344
		c-0.366,1-0.726,2.005-1.067,3.012c-0.074,0.219-0.18,0.273-0.402,0.273c-4.896-0.008-9.789-0.008-14.684,0
		c-0.222,0-0.328-0.061-0.404-0.274c-0.365-1.013-0.738-2.021-1.127-3.024c-0.104-0.264-0.062-0.328,0.229-0.328
		C96.956,28.132,99.839,28.128,102.723,28.128z"/>
	<path fill="#58585B" d="M102.723,35.148c2.023,0,4.047,0.004,6.071-0.006c0.274-0.001,0.338,0.045,0.231,0.322
		c-0.383,1.004-0.748,2.017-1.105,3.031c-0.074,0.213-0.175,0.275-0.396,0.274c-3.226-0.008-6.446-0.009-9.672,0.001
		c-0.229,0.001-0.317-0.078-0.392-0.284c-0.354-1.016-0.722-2.026-1.099-3.034c-0.096-0.254-0.049-0.313,0.223-0.313
		C98.63,35.152,100.675,35.148,102.723,35.148z"/>
	<path fill="#58585B" d="M64.638,14.066c1.848,0,3.695,0.011,5.542-0.009c0.336-0.003,0.4,0.099,0.375,0.406
		c-0.08,1.036-0.318,2.035-0.625,3.024c-0.07,0.226-0.221,0.202-0.385,0.202c-1.615,0-3.231,0-4.849,0
		c-1.879,0-3.759-0.005-5.641,0.005c-0.249,0.001-0.34-0.05-0.335-0.322c0.018-1,0.016-2,0.001-3.001
		c-0.003-0.247,0.062-0.311,0.309-0.31C60.9,14.071,62.769,14.066,64.638,14.066z"/>
	<path fill="#58585B" d="M64.605,38.767c-1.857,0-3.717-0.005-5.574,0.007c-0.246,0.001-0.313-0.063-0.31-0.31
		c0.014-1,0.012-2.002,0.001-3.002c-0.003-0.232,0.04-0.321,0.302-0.32c3.519,0.01,7.036,0.008,10.555,0.006
		c0.162,0,0.288,0.001,0.351,0.202c0.313,0.998,0.555,2.008,0.627,3.056c0.02,0.28-0.037,0.373-0.344,0.37
		C68.343,38.759,66.473,38.767,64.605,38.767z"/>
	<path fill="#58585B" d="M42.359,17.688c-1.759,0-3.519-0.006-5.277,0.007c-0.269,0.001-0.329-0.081-0.326-0.335
		c0.013-1,0.012-2.002,0-3.002c-0.002-0.228,0.059-0.297,0.292-0.297c3.53,0.007,7.059,0.007,10.588,0
		c0.223,0,0.272,0.072,0.271,0.279c-0.01,1.023-0.012,2.045,0,3.068c0.003,0.248-0.088,0.285-0.304,0.284
		C45.855,17.686,44.107,17.688,42.359,17.688z"/>
	<path fill="#58585B" d="M42.36,38.767c-1.758,0-3.518-0.006-5.276,0.007c-0.26,0.001-0.332-0.067-0.328-0.329
		c0.015-0.999,0.012-2,0.001-3c-0.002-0.225,0.053-0.302,0.291-0.301c3.529,0.007,7.058,0.007,10.586,0
		c0.221,0,0.275,0.068,0.273,0.281c-0.011,1.021-0.014,2.043,0,3.066c0.005,0.248-0.089,0.279-0.303,0.278
		C45.856,38.764,44.109,38.767,42.36,38.767z"/>
	<path fill="#58585B" d="M13.013,14.066c1.737,0,3.475,0.007,5.212-0.006c0.278-0.002,0.347,0.078,0.342,0.349
		c-0.017,0.991-0.015,1.98-0.001,2.97c0.003,0.248-0.068,0.314-0.317,0.314c-3.508-0.008-7.017-0.009-10.526,0
		c-0.264,0.001-0.303-0.092-0.3-0.322c0.011-1.001,0.013-2.003-0.002-3.003c-0.004-0.25,0.067-0.31,0.311-0.308
		C9.492,14.071,11.252,14.066,13.013,14.066z"/>
	<path fill="#58585B" d="M86.133,31.748c-1.748,0-3.496-0.006-5.244,0.004c-0.25,0.004-0.313-0.064-0.311-0.313
		c0.013-1.012,0.011-2.023,0.001-3.035c-0.002-0.209,0.047-0.279,0.271-0.279c3.53,0.006,7.063,0.006,10.592,0
		c0.207,0,0.287,0.049,0.283,0.272c-0.012,1.021-0.013,2.045,0,3.067c0.004,0.248-0.099,0.285-0.313,0.285
		C89.652,31.744,87.895,31.748,86.133,31.748z"/>
	<path fill="#58585B" d="M119.109,28.128c1.759,0,3.518,0.006,5.277-0.006c0.241,0,0.315,0.057,0.313,0.309
		c-0.016,1-0.014,2.002-0.001,3.001c0.003,0.235-0.042,0.321-0.304,0.319c-3.508-0.008-7.016-0.008-10.521,0
		c-0.246,0-0.32-0.063-0.318-0.313c0.014-1,0.014-2,0-3.001c-0.002-0.244,0.059-0.316,0.312-0.313
		C115.611,28.134,117.359,28.128,119.109,28.128z"/>
	<path fill="#58585B" d="M12.986,38.767c-1.737,0-3.474-0.006-5.212,0.007c-0.259,0.001-0.358-0.042-0.354-0.333
		c0.021-1.001,0.014-2.001,0.003-3.003c-0.003-0.229,0.063-0.295,0.295-0.295c3.519,0.008,7.038,0.008,10.557,0
		c0.242-0.001,0.292,0.086,0.29,0.306c-0.009,1.014-0.011,2.023,0.001,3.035c0.003,0.239-0.079,0.289-0.301,0.288
		C16.505,38.764,14.745,38.767,12.986,38.767z"/>
	<path fill="#58585B" d="M86.12,38.767c-1.738,0-3.476-0.005-5.214,0.006c-0.252,0.002-0.333-0.057-0.329-0.322
		c0.019-1,0.013-2.002,0.003-3.002c-0.002-0.217,0.036-0.307,0.281-0.307c3.521,0.009,7.041,0.009,10.561,0.001
		c0.227,0,0.307,0.062,0.303,0.295c-0.012,1.003-0.013,2.003,0,3.004c0.004,0.254-0.059,0.334-0.322,0.332
		C89.641,38.761,87.88,38.767,86.12,38.767z"/>
	<path fill="#58585B" d="M119.118,38.767c-1.749,0-3.497-0.005-5.246,0.006c-0.237,0.001-0.322-0.048-0.317-0.305
		c0.016-1.002,0.016-2.002-0.002-3.002c-0.004-0.273,0.096-0.323,0.342-0.322c3.486,0.007,6.976,0.008,10.459-0.002
		c0.275,0,0.353,0.072,0.348,0.348c-0.018,0.977-0.021,1.957,0.003,2.934c0.008,0.313-0.101,0.354-0.371,0.353
		C122.594,38.761,120.855,38.767,119.118,38.767z"/>
	<path fill="#58585B" d="M12.978,28.128c1.758,0,3.519,0.006,5.278-0.006c0.25-0.002,0.314,0.067,0.311,0.313
		c-0.014,1.001-0.013,2.001,0,3.001c0.003,0.248-0.069,0.313-0.317,0.313c-3.508-0.008-7.015-0.01-10.522,0
		c-0.259,0.002-0.307-0.082-0.305-0.318c0.013-0.999,0.015-2.001,0-3.001c-0.004-0.25,0.067-0.312,0.312-0.31
		C9.481,28.134,11.229,28.128,12.978,28.128z"/>
	<path fill="#58585B" d="M13.003,24.707c-1.738,0-3.475-0.009-5.212,0.009c-0.314,0.003-0.375-0.096-0.371-0.385
		c0.017-0.989,0.013-1.979,0.002-2.968c-0.003-0.22,0.065-0.278,0.278-0.277c3.53,0.006,7.06,0.006,10.589-0.001
		c0.226,0,0.275,0.081,0.274,0.288c-0.008,1.012-0.012,2.023,0.003,3.035c0.004,0.257-0.081,0.306-0.319,0.305
		C16.5,24.703,14.751,24.707,13.003,24.707z"/>
	<path fill="#58585B" d="M102.702,42.188c1.198,0,2.396,0.007,3.593-0.007c0.277-0.004,0.303,0.063,0.214,0.306
		c-0.364,1.013-0.718,2.026-1.059,3.046c-0.073,0.215-0.177,0.278-0.399,0.277c-1.55-0.012-3.099-0.01-4.648-0.003
		c-0.191,0.001-0.291-0.05-0.356-0.239c-0.377-1.042-0.763-2.08-1.157-3.113c-0.082-0.221-0.045-0.272,0.19-0.271
		C100.286,42.19,101.494,42.188,102.702,42.188z"/>
	<path fill="#58585B" d="M104.154,49.207c-0.121,0.342-0.229,0.649-0.34,0.957c-0.299,0.823-0.602,1.646-0.898,2.471
		c-0.035,0.095-0.053,0.195-0.189,0.189c-0.113-0.009-0.134-0.094-0.162-0.178c-0.383-1.072-0.768-2.146-1.152-3.221
		c-0.057-0.147-0.038-0.223,0.146-0.221C102.408,49.21,103.262,49.207,104.154,49.207z"/>
</g>
</svg>
