<?xml version="1.0" encoding="utf-8"?>
<!-- Generator: Adobe Illustrator 16.0.3, SVG Export Plug-In . SVG Version: 6.00 Build 0)  -->
<!DOCTYPE svg PUBLIC "-//W3C//DTD SVG 1.1//EN" "http://www.w3.org/Graphics/SVG/1.1/DTD/svg11.dtd">
<svg version="1.1" id="Layer_1" xmlns="http://www.w3.org/2000/svg" xmlns:xlink="http://www.w3.org/1999/xlink" x="0px" y="0px"
	 width="164px" height="26.833px" viewBox="0 0 164 26.833" enable-background="new 0 0 164 26.833" xml:space="preserve">
<path fill="#58585B" d="M7.099,19.201V6.6h1.8h0.9l0.899,0.101l0.801,0.101l0.199,0.1v-6l-1-0.1L8.999,0.701h-8.2v24.4h9.5h0.899
	l0.5-0.102v-6.102h-0.1l-1,0.201l-1.1,0.1h-0.6L7.099,19.201L7.099,19.201z M60.898,2.1v11l-1.5,2.3h1.5v5.701h-3.8l-0.5,0.5
	l-1,0.898l-1,0.799l-1.1,0.602l-1.101,0.5l-1.2,0.398l-1.199,0.303l-1.2,0.197l-1.3,0.102h-1.2l-1.2-0.199l-1.3-0.301l-1.3-0.4
	l-1-0.398l-1-0.701l-1-0.697l-0.9-0.803l-0.8-0.898l-0.7-1l-0.7-1.102l-0.6-1.299l-0.4-1.301L35.098,15l-0.1-1.299V12.5l0.1-1.2
	l0.2-1.199l0.3-1.201l0.5-1.198l0.6-1.2l0.7-1l0.8-1l0.9-0.9l1-0.799l1-0.701l1.1-0.6l1.301-0.5l1.3-0.4l1.2-0.199l1.199-0.1h1.2
	l1.2,0.1l1.2,0.301l1.2,0.398l1.199,0.5l1.101,0.601l1,0.698l0.899,0.802l0.801,0.8l0.3,0.398l-3.4,5.201l-0.399-0.4l-0.4-0.4
	l-1-0.699l-1.2-0.5l-1.2-0.5L48.5,7.302l-1-0.1l-1,0.1l-1,0.2l-1,0.399l-0.801,0.5L43,8.901L42.5,9.6L42,10.301l-0.301,0.801
	L41.5,11.901l-0.101,0.701v0.799l0.101,0.802l0.3,0.801l0.399,0.801l0.5,0.699l0.601,0.6l0.7,0.5l0.699,0.4l0.801,0.301l0.899,0.199
	l0.9,0.1l0.899-0.1l0.801-0.199l0.8-0.301l0.7-0.4l0.699-0.5l0.5-0.5l0.2-0.199L60.898,2.1z M11.698,6.899L12.299,7.1l0.8,0.399
	l0.7,0.5l0.6,0.601L15,9.299l0.5,0.7l0.399,0.8l0.2,0.801l0.1,0.799V13.1l-0.1,0.698l-0.1,0.803L15.698,15.4l-0.3,0.701l-0.6,0.799
	l-0.7,0.701l-0.8,0.6l-0.8,0.4L11.697,18.9V25l0.601-0.1l1.399-0.301l1.301-0.5l1.1-0.5l1.1-0.699l1-0.801l0.9-0.801l0.8-0.898
	l0.7-1.102l0.4-0.6v6.4h13.5v-5.9h-7v-3.4h7V9.999h-7v-3.6h7V0.6h-13.7v6.799L20.697,7l-0.6-0.899l-0.7-1l-1-1l-1-0.9l-1-0.7
	l-1.2-0.601l-1.5-0.5l-1.5-0.399l-0.5-0.101v5.999H11.698z M85.998,25.101H92.6V15.9h6.699v9.201h6.6V0.7h-6.6v9.4H92.6V0.7h-6.602
	V25.101z M74.099,25.101h6.5V6.6h4.7V0.7H69.698v5.9h4.5v18.501H74.099z M60.898,21.101V15.4h1.5v-4.501l-1.5,2.201v-11l0.9-1.399
	h7.1v24.4h-6.5v-4H60.898z M130.1,0.2v6.699H129.7L128.8,7l-0.801,0.2l-0.802,0.398l-0.698,0.4l-0.699,0.6L125.199,9.2l-0.5,0.699
	l-0.301,0.801l-0.199,0.8l-0.1,0.899V13.2l0.1,0.901l0.199,0.799l0.301,0.801l0.199,0.301l0.101,0.199l0.2,0.301l0.601,0.6
	l0.601,0.5l1,0.5l0.801,0.299l0.8,0.201l0.899,0.102h0.301v6.6H129.6l-1.199-0.1l-1.199-0.201l-1.2-0.398l-1.198-0.5l-1.103-0.602
	l-1-0.701l-0.897-0.799l-0.4-0.301l-0.299-0.301v3.701h-14v-24.4h6.6v18.4h5.602l-0.199-0.5l-0.301-0.5l-0.4-1.102l-0.299-1.199
	l-0.201-1.199l-0.1-1.201v-1.299l0.1-1.301l0.302-1.3l0.399-1.2l0.5-1.1l0.299-1.1l0.699-1l0.801-1l0.9-0.899l1-0.802l1-0.698
	l1.1-0.5l1.101-0.5l1.2-0.302l1.199-0.199l1.199-0.1h0.5v0.1H130.1z M130.1,25.4v-6.602h0.5l1.101-0.197l0.8-0.303l0.801-0.398
	L134,17.4l0.604-0.602l0.5-0.697l0.5-1l0.299-0.803l0.201-0.799v-0.701v-0.8l-0.201-0.8l-0.299-0.801l-0.4-0.801l-0.5-0.699
	l-0.9-0.799L133.104,7.7l-0.801-0.399L131.5,7.1L130.6,7H130.2V0.3h0.8l1.301,0.1l1.197,0.301l1.199,0.4l1.102,0.5l1.102,0.601
	l1.102,0.8l1.1,0.898l0.898,1l0.801,1l0.602,1.101l0.5,1.101l0.301,1l0.1,0.399V0.899h6.102l8.102,12v-12.1l6.701,0.1v24.202h-6
	L148.902,13.2v11.901h-6.6V16.4l-0.199,0.5l-0.398,1.102l-0.602,1.1l-0.701,1l-0.799,1L138.705,22l-1,0.801l-1,0.699l-1.102,0.602
	l-1.201,0.5L133.104,25l-1.301,0.301l-1.199,0.1H130.1L130.1,25.4z"/>
</svg>
