<?xml version="1.0" encoding="utf-8"?>
<!-- Generator: Adobe Illustrator 16.0.3, SVG Export Plug-In . SVG Version: 6.00 Build 0)  -->
<!DOCTYPE svg PUBLIC "-//W3C//DTD SVG 1.1//EN" "http://www.w3.org/Graphics/SVG/1.1/DTD/svg11.dtd">
<svg version="1.1" id="Layer_1" xmlns="http://www.w3.org/2000/svg" xmlns:xlink="http://www.w3.org/1999/xlink" x="0px" y="0px"
	 width="101.667px" height="53.708px" viewBox="0 0 101.667 53.708" enable-background="new 0 0 101.667 53.708"
	 xml:space="preserve">
<g>
	<path fill="#58585B" d="M17.034,33.114c-0.808,0-1.441,0.565-1.441,1.393c0,0.822,0.636,1.387,1.441,1.387
		c0.805,0,1.442-0.564,1.442-1.387C18.477,33.679,17.843,33.114,17.034,33.114z M17.034,35.495c-0.575,0-1.002-0.42-1.002-0.988
		c0-0.57,0.424-0.994,1.002-0.994c0.573,0,1.004,0.432,1.004,0.994C18.039,35.063,17.604,35.495,17.034,35.495z"/>
	<polygon fill="#58585B" points="31.058,28.251 24.042,28.251 24.839,16.06 20.283,28.251 13.771,28.251 24.106,0.694 31.037,0.694 
		30.235,13.053 34.879,0.694 41.392,0.694 	"/>
	<polygon fill="#58585B" points="31.903,28.251 42.238,0.694 48.752,0.694 38.416,28.251 	"/>
	<path fill="#58585B" d="M13.02,18.753C3.917,29.442-4.669,43.666,2.915,50.214c7.349,6.347,16.535,2.588,22.799,0.084
		c6.262-2.507,75.493-32.568,75.493-32.568c0.67-0.333,0.543-0.751-0.291-0.543c-0.338,0.084-75.371,20.417-75.371,20.417
		C16.025,40.276,5.17,34.452,13.02,18.753z"/>
	<path fill="#58585B" d="M17.28,34.602c0.201-0.011,0.36-0.113,0.36-0.396c0-0.359-0.236-0.451-0.63-0.451h-0.566v1.494h0.378
		v-0.636h0.063l0.343,0.636h0.434L17.28,34.602z M17.039,34.362h-0.214v-0.351h0.181c0.111,0,0.239,0.017,0.239,0.16
		C17.245,34.327,17.169,34.362,17.039,34.362z"/>
	<path fill="#58585B" d="M82.516,0.61c-0.81,0-1.44,0.566-1.44,1.391c0,0.825,0.637,1.388,1.44,1.388s1.438-0.566,1.438-1.388
		C83.957,1.176,83.324,0.61,82.516,0.61z M82.516,2.99c-0.576,0-1.004-0.42-1.004-0.991c0-0.57,0.423-0.993,1.004-0.993
		c0.569,0,1.003,0.431,1.003,0.993C83.519,2.558,83.083,2.99,82.516,2.99z"/>
	<path fill="#58585B" d="M82.759,2.098c0.203-0.009,0.361-0.113,0.361-0.394c0-0.361-0.236-0.452-0.629-0.452h-0.566v1.496h0.378
		V2.111h0.063l0.344,0.637h0.435L82.759,2.098z M82.519,1.855h-0.216V1.509h0.182c0.111,0,0.24,0.013,0.24,0.158
		C82.725,1.822,82.651,1.855,82.519,1.855z"/>
	<path fill="#58585B" d="M78.221,5.286l1.753-4.593H66.921H66.86h-6.762l-6.827,8.268l3.152-8.268h-6.6L39.573,28.25h6.514
		l4.375-11.521l0.301,11.521l19.988-0.042l1.901-5.301h-7.6l2.497-6.681h6.263l1.927-5.136h-6.263l2.146-5.804L78.221,5.286
		L78.221,5.286z M57.228,26.414l-0.417-14.363L66.66,1.238L57.228,26.414z"/>
</g>
</svg>
